<svg id="svg" version="1.1" xmlns="http://www.w3.org/2000/svg" xmlns:xlink="http://www.w3.org/1999/xlink" width="400" height="400" viewBox="0, 0, 400,400"><g id="svgg"><path id="path0" d="M222.261 62.800 C 221.706 63.460,221.105 64.000,220.926 64.000 C 220.058 64.000,220.761 101.326,221.662 103.100 C 222.137 104.035,222.634 104.800,222.765 104.800 C 222.897 104.800,223.228 105.295,223.502 105.900 C 223.819 106.602,224.735 107.347,226.035 107.959 C 227.155 108.487,228.164 109.162,228.278 109.459 C 228.392 109.757,228.658 110.000,228.869 110.000 C 229.081 110.000,229.843 110.450,230.564 111.000 C 231.286 111.550,232.084 112.000,232.338 112.000 C 232.592 112.000,232.800 112.253,232.800 112.563 C 232.800 112.928,233.080 113.052,233.600 112.916 C 234.165 112.768,234.400 112.904,234.400 113.377 C 234.400 113.746,234.584 113.933,234.809 113.794 C 235.270 113.509,237.600 114.430,237.600 114.898 C 237.600 115.064,237.825 115.200,238.100 115.200 C 238.723 115.201,241.031 117.171,240.914 117.601 C 240.866 117.776,241.181 117.825,241.614 117.712 C 242.049 117.599,242.400 117.706,242.400 117.953 C 242.400 118.199,242.620 118.400,242.888 118.400 C 243.856 118.400,247.186 120.212,247.193 120.743 C 247.197 121.041,247.448 121.190,247.752 121.074 C 248.056 120.957,248.911 121.381,249.652 122.015 C 250.393 122.649,251.394 123.175,251.876 123.184 C 252.358 123.193,252.864 123.380,253.000 123.600 C 253.136 123.820,253.526 124.000,253.866 124.000 C 254.566 124.000,257.046 125.972,256.914 126.423 C 256.866 126.585,257.181 126.625,257.614 126.512 C 258.049 126.399,258.400 126.506,258.400 126.753 C 258.400 126.999,258.636 127.200,258.925 127.200 C 259.213 127.200,259.836 127.560,260.308 128.000 C 260.780 128.440,261.540 128.800,261.996 128.800 C 262.452 128.800,262.933 129.080,263.064 129.423 C 263.196 129.766,263.548 129.952,263.847 129.837 C 264.145 129.723,264.887 130.091,265.495 130.657 C 266.103 131.222,267.275 131.978,268.100 132.337 C 268.925 132.695,269.600 133.227,269.600 133.518 C 269.600 133.809,269.796 133.926,270.035 133.779 C 270.678 133.381,273.906 135.173,275.764 136.958 C 276.657 137.816,278.110 138.923,278.994 139.420 C 279.969 139.968,280.937 140.959,281.459 141.946 C 281.931 142.839,282.850 144.071,283.501 144.685 C 284.152 145.298,284.935 146.385,285.240 147.100 C 285.545 147.815,285.931 148.400,286.098 148.400 C 286.264 148.400,286.400 148.839,286.400 149.376 C 286.400 149.913,286.549 150.445,286.732 150.558 C 287.341 150.934,287.336 239.802,286.728 240.444 C 286.437 240.750,286.200 241.540,286.200 242.200 C 286.200 243.007,286.020 243.362,285.651 243.284 C 285.321 243.214,285.188 243.392,285.318 243.731 C 285.444 244.059,284.713 245.155,283.567 246.356 C 282.485 247.491,281.600 248.595,281.600 248.809 C 281.600 249.024,281.349 249.200,281.043 249.200 C 280.736 249.200,280.382 249.470,280.255 249.800 C 280.129 250.130,279.659 250.400,279.213 250.400 C 278.766 250.400,278.400 250.580,278.400 250.800 C 278.400 251.020,278.175 251.207,277.900 251.216 C 277.625 251.225,276.777 251.765,276.015 252.416 C 275.253 253.067,274.398 253.600,274.115 253.600 C 273.832 253.600,273.600 253.801,273.600 254.047 C 273.600 254.296,273.247 254.401,272.800 254.284 C 272.339 254.164,272.000 254.272,272.000 254.540 C 272.000 254.796,271.415 255.244,270.700 255.536 C 268.740 256.337,267.423 256.973,267.200 257.226 C 266.601 257.906,263.167 260.000,262.652 260.000 C 262.319 260.000,261.936 260.180,261.800 260.400 C 261.664 260.620,261.203 260.800,260.776 260.800 C 260.349 260.800,260.000 260.952,260.000 261.137 C 260.000 261.323,259.223 261.874,258.274 262.362 C 257.324 262.850,255.929 263.778,255.174 264.424 C 254.418 265.070,253.496 265.599,253.124 265.599 C 252.752 265.600,252.336 265.780,252.200 266.000 C 252.064 266.220,251.631 266.400,251.238 266.400 C 250.845 266.400,250.198 266.760,249.800 267.200 C 249.402 267.640,248.849 268.000,248.571 268.000 C 248.294 268.000,248.007 268.135,247.933 268.300 C 247.860 268.465,246.945 269.033,245.900 269.563 C 244.855 270.092,244.000 270.677,244.000 270.863 C 244.000 271.048,243.612 271.200,243.138 271.200 C 242.664 271.200,241.686 271.650,240.964 272.200 C 240.243 272.750,239.561 273.200,239.447 273.200 C 239.334 273.200,238.756 273.650,238.162 274.200 C 237.569 274.750,236.839 275.200,236.542 275.200 C 236.244 275.200,236.000 275.380,236.000 275.600 C 236.000 275.820,235.640 276.000,235.200 276.000 C 234.760 276.000,234.400 276.180,234.400 276.400 C 234.400 276.620,234.128 276.800,233.795 276.800 C 233.239 276.800,231.678 277.522,231.200 278.000 C 230.796 278.404,229.380 279.230,228.700 279.458 C 228.315 279.588,228.000 279.963,228.000 280.293 C 228.000 280.696,227.737 280.825,227.200 280.684 C 226.659 280.543,226.400 280.672,226.400 281.083 C 226.400 281.531,226.084 281.644,225.200 281.515 C 224.400 281.397,224.000 281.509,224.000 281.850 C 224.000 282.298,223.223 282.900,219.793 285.112 C 219.357 285.393,218.697 285.726,218.328 285.851 C 217.958 285.976,217.559 286.331,217.440 286.639 C 217.322 286.948,216.780 287.200,216.236 287.200 C 215.692 287.200,215.141 287.372,215.011 287.583 C 214.881 287.793,214.554 287.880,214.284 287.777 C 214.015 287.674,213.616 287.974,213.397 288.445 C 212.772 289.791,206.685 292.800,204.587 292.800 C 203.630 292.800,202.736 292.980,202.600 293.200 C 202.194 293.856,196.815 293.705,196.556 293.030 C 196.400 292.623,195.941 292.525,194.947 292.686 C 194.182 292.810,193.116 292.707,192.578 292.456 C 192.040 292.205,191.105 291.781,190.500 291.512 C 189.076 290.881,185.882 288.776,185.515 288.226 C 185.358 287.992,185.088 287.784,184.915 287.765 C 183.888 287.653,181.117 286.324,180.400 285.600 C 180.070 285.267,179.305 284.740,178.700 284.430 C 178.095 284.119,177.600 283.625,177.600 283.332 C 177.600 283.040,177.313 282.800,176.963 282.800 C 176.612 282.800,176.240 282.473,176.135 282.073 C 175.991 281.524,175.658 281.389,174.773 281.519 C 173.897 281.647,173.600 281.530,173.600 281.058 C 173.600 280.682,173.374 280.512,173.044 280.638 C 172.461 280.862,170.400 279.070,170.400 278.339 C 170.400 278.105,170.164 278.005,169.875 278.116 C 169.587 278.226,168.912 277.980,168.375 277.567 C 167.839 277.155,167.119 276.814,166.775 276.809 C 166.432 276.804,165.764 276.440,165.292 276.000 C 164.820 275.560,164.323 275.200,164.189 275.200 C 163.782 275.200,160.246 272.702,159.553 271.925 C 159.197 271.526,158.517 271.200,158.041 271.200 C 157.564 271.200,157.071 270.930,156.945 270.600 C 156.818 270.270,156.452 270.000,156.131 270.000 C 155.809 270.000,154.957 269.550,154.236 269.000 C 153.514 268.450,152.716 268.000,152.462 268.000 C 152.208 268.000,152.000 267.862,152.000 267.694 C 152.000 267.526,151.280 267.077,150.400 266.696 C 149.520 266.314,148.800 265.839,148.800 265.639 C 148.800 265.439,148.440 265.369,148.000 265.484 C 147.429 265.634,147.200 265.496,147.200 265.004 C 147.200 264.545,146.992 264.394,146.579 264.553 C 146.233 264.686,145.579 264.439,145.103 263.996 C 144.634 263.558,143.744 262.976,143.125 262.703 C 142.506 262.429,142.000 262.069,142.000 261.902 C 142.000 261.736,141.640 261.600,141.200 261.600 C 140.760 261.600,140.400 261.420,140.400 261.200 C 140.400 260.980,140.034 260.800,139.587 260.800 C 139.141 260.800,138.679 260.550,138.562 260.244 C 138.444 259.938,138.021 259.774,137.619 259.879 C 137.218 259.984,136.769 259.874,136.622 259.635 C 136.474 259.396,136.037 259.200,135.652 259.200 C 135.266 259.200,134.593 258.885,134.155 258.500 C 133.030 257.511,131.714 256.800,131.005 256.800 C 130.672 256.800,130.400 256.518,130.400 256.173 C 130.400 255.737,130.166 255.620,129.634 255.789 C 129.212 255.923,128.752 255.845,128.610 255.616 C 128.469 255.387,128.003 255.200,127.576 255.200 C 127.149 255.200,126.800 255.020,126.800 254.800 C 126.800 254.580,126.530 254.400,126.200 254.400 C 125.870 254.400,125.600 254.220,125.600 254.000 C 125.600 253.780,125.375 253.600,125.100 253.599 C 124.825 253.599,123.923 252.879,123.095 251.999 C 122.267 251.120,121.367 250.400,121.095 250.400 C 120.438 250.399,118.400 248.628,118.400 248.058 C 118.400 247.553,117.571 246.463,115.800 244.637 C 114.267 243.057,113.427 241.427,113.734 240.627 C 113.891 240.219,113.752 240.000,113.336 240.000 C 112.802 240.000,112.740 239.677,112.957 238.036 C 113.146 236.613,113.078 236.026,112.709 235.903 C 111.941 235.647,111.844 223.235,112.608 222.941 C 113.006 222.789,113.097 222.227,112.942 220.866 C 112.715 218.874,113.889 217.096,116.407 215.617 C 117.440 215.010,149.984 214.234,163.701 214.490 C 168.213 214.574,169.601 214.482,169.601 214.100 C 169.600 213.825,169.780 213.600,170.000 213.600 C 170.220 213.600,170.400 213.163,170.400 212.629 C 170.400 212.094,170.670 211.387,171.000 211.057 C 171.805 210.252,171.896 194.456,171.100 193.660 C 170.742 193.302,170.560 190.797,170.460 184.815 L 170.320 176.469 169.060 175.133 C 168.367 174.398,167.350 173.581,166.800 173.318 C 165.684 172.785,154.000 172.398,154.000 172.895 C 154.000 173.063,153.010 173.200,151.800 173.200 C 150.502 173.200,149.600 173.024,149.600 172.771 C 149.600 172.536,149.300 172.643,148.933 173.010 C 148.345 173.598,147.434 173.653,141.233 173.478 C 137.365 173.368,130.375 173.267,125.700 173.253 C 119.543 173.233,117.200 173.099,117.200 172.763 C 117.200 172.460,116.778 172.384,115.977 172.545 C 113.089 173.122,112.997 172.677,113.021 158.200 C 113.033 150.884,113.204 145.130,113.421 144.770 C 114.043 143.738,118.963 140.121,119.502 140.301 C 119.776 140.392,120.000 140.182,120.000 139.833 C 120.000 139.440,120.347 139.200,120.916 139.200 C 121.423 139.200,122.621 138.486,123.600 137.600 C 124.572 136.720,125.600 136.000,125.884 136.000 C 126.168 136.000,126.400 135.841,126.400 135.647 C 126.400 135.452,126.715 135.193,127.100 135.071 C 127.485 134.949,128.340 134.541,129.000 134.164 C 129.660 133.787,130.515 133.326,130.900 133.139 C 132.317 132.452,133.314 131.774,134.485 130.700 C 135.145 130.095,136.015 129.600,136.419 129.600 C 136.822 129.600,137.264 129.420,137.400 129.200 C 137.536 128.980,137.914 128.800,138.240 128.800 C 138.567 128.800,139.210 128.449,139.671 128.020 C 140.131 127.591,141.073 126.972,141.764 126.644 C 142.455 126.316,143.555 125.587,144.210 125.025 C 144.864 124.462,145.715 124.001,146.100 124.000 C 146.485 124.000,146.800 123.820,146.800 123.600 C 146.800 123.380,147.153 123.200,147.584 123.200 C 148.602 123.200,151.177 121.916,151.193 121.400 C 151.200 121.180,151.610 120.802,152.103 120.560 C 152.596 120.317,153.810 119.710,154.800 119.210 C 155.790 118.709,156.915 118.142,157.300 117.950 C 158.890 117.155,159.825 116.567,160.400 116.000 C 161.196 115.215,162.743 114.331,165.600 113.029 C 167.270 112.268,169.239 111.068,171.720 109.300 C 172.723 108.585,173.827 108.000,174.172 108.000 C 174.517 108.000,174.800 107.820,174.800 107.600 C 174.800 107.380,175.025 107.201,175.300 107.203 C 175.575 107.204,176.385 106.531,177.100 105.707 L 178.400 104.209 178.400 84.764 L 178.400 65.319 177.200 64.063 C 176.540 63.372,176.000 62.667,176.000 62.495 C 176.000 61.769,172.592 62.188,171.800 63.011 C 170.375 64.493,168.490 65.609,167.836 65.359 C 167.486 65.224,167.200 65.318,167.200 65.567 C 167.200 66.013,165.296 66.994,164.689 66.861 C 164.518 66.823,164.273 67.064,164.146 67.396 C 164.019 67.728,163.744 68.000,163.535 68.000 C 163.327 68.000,162.096 68.720,160.800 69.600 C 159.504 70.480,158.096 71.200,157.671 71.200 C 157.246 71.200,156.674 71.470,156.400 71.800 C 156.126 72.130,155.654 72.400,155.351 72.400 C 155.048 72.400,154.800 72.567,154.800 72.771 C 154.800 72.975,154.305 73.391,153.700 73.697 C 151.879 74.617,150.684 75.362,149.845 76.100 C 149.407 76.485,148.721 76.800,148.319 76.800 C 147.637 76.800,146.052 77.515,145.600 78.026 C 145.084 78.611,141.603 80.800,141.190 80.800 C 140.933 80.800,140.246 81.132,139.662 81.537 C 139.078 81.943,138.015 82.527,137.300 82.835 C 136.585 83.143,136.000 83.531,136.000 83.698 C 136.000 83.864,135.775 84.007,135.500 84.016 C 135.225 84.025,134.377 84.565,133.615 85.216 C 132.853 85.867,132.004 86.400,131.727 86.400 C 131.451 86.400,130.614 86.743,129.867 87.162 C 129.120 87.582,128.080 88.167,127.555 88.462 C 127.030 88.758,126.483 89.161,126.340 89.358 C 126.198 89.555,125.793 89.606,125.440 89.471 C 125.088 89.336,124.800 89.424,124.800 89.666 C 124.800 90.308,122.715 91.999,121.924 92.000 C 121.552 92.000,121.136 92.180,121.000 92.400 C 120.864 92.620,120.403 92.800,119.976 92.800 C 119.549 92.800,119.200 92.959,119.200 93.154 C 119.200 93.609,116.359 94.998,115.700 94.865 C 115.425 94.810,115.200 95.043,115.200 95.382 C 115.200 95.722,114.964 96.000,114.675 96.000 C 114.387 96.000,113.764 96.360,113.292 96.800 C 112.820 97.240,111.976 97.600,111.417 97.600 C 110.858 97.600,110.400 97.780,110.400 98.000 C 110.400 98.220,110.175 98.400,109.900 98.401 C 109.625 98.401,108.786 98.926,108.036 99.568 C 107.286 100.209,106.206 100.967,105.636 101.252 C 105.066 101.538,104.105 102.105,103.500 102.513 C 102.836 102.960,102.083 103.153,101.600 103.000 C 101.032 102.820,100.800 102.928,100.800 103.373 C 100.800 103.733,100.460 104.000,100.000 104.000 C 99.560 104.000,99.200 104.180,99.200 104.400 C 99.200 104.620,98.975 104.807,98.700 104.816 C 98.425 104.825,97.593 105.351,96.852 105.985 C 96.111 106.619,95.279 107.052,95.004 106.946 C 94.728 106.840,94.396 107.034,94.264 107.377 C 94.133 107.720,93.704 108.004,93.313 108.009 C 92.921 108.014,92.150 108.370,91.600 108.800 C 91.050 109.230,90.375 109.586,90.100 109.591 C 89.825 109.596,89.600 109.801,89.600 110.047 C 89.600 110.296,89.247 110.401,88.800 110.284 C 88.360 110.169,88.000 110.262,88.000 110.491 C 88.000 111.185,86.334 112.400,85.382 112.400 C 84.889 112.400,84.382 112.670,84.255 113.000 C 84.129 113.330,83.603 113.600,83.088 113.600 C 82.507 113.600,81.808 114.063,81.249 114.819 C 80.594 115.705,80.137 115.970,79.574 115.792 C 78.985 115.605,78.800 115.737,78.800 116.344 C 78.800 116.783,78.395 117.470,77.900 117.871 C 77.405 118.272,76.623 119.320,76.162 120.200 C 75.700 121.080,74.935 122.480,74.462 123.312 C 73.988 124.144,73.600 125.168,73.600 125.589 C 73.600 126.009,73.420 126.464,73.200 126.600 C 72.604 126.969,72.652 261.273,73.249 263.172 C 73.496 263.957,73.958 265.050,74.274 265.600 C 74.590 266.150,74.949 266.915,75.071 267.300 C 75.193 267.685,75.464 268.000,75.674 268.000 C 75.883 268.000,75.940 268.360,75.800 268.800 C 75.658 269.246,75.728 269.600,75.958 269.600 C 76.184 269.600,77.179 270.387,78.169 271.349 C 79.159 272.311,80.034 273.033,80.113 272.953 C 80.193 272.874,80.774 273.346,81.404 274.004 C 82.034 274.662,82.786 275.200,83.075 275.200 C 83.364 275.200,83.600 275.380,83.600 275.600 C 83.600 275.820,83.962 276.000,84.405 276.000 C 85.357 276.000,86.733 276.723,87.643 277.700 C 88.001 278.085,88.588 278.400,88.947 278.400 C 89.306 278.400,89.600 278.580,89.600 278.800 C 89.600 279.020,89.836 279.200,90.125 279.200 C 90.413 279.200,91.036 279.560,91.508 280.000 C 91.980 280.440,92.537 280.800,92.745 280.800 C 93.469 280.800,96.585 282.606,97.749 283.700 C 98.392 284.305,99.162 284.800,99.459 284.800 C 99.757 284.800,100.001 284.935,100.003 285.100 C 100.007 285.459,101.944 286.400,102.680 286.400 C 102.966 286.400,103.200 286.689,103.200 287.043 C 103.200 287.409,103.426 287.599,103.725 287.484 C 104.013 287.374,104.688 287.620,105.225 288.033 C 105.761 288.445,106.337 288.786,106.504 288.791 C 106.671 288.796,107.372 289.340,108.063 290.000 C 108.754 290.660,109.562 291.200,109.859 291.200 C 110.157 291.200,110.400 291.482,110.400 291.827 C 110.400 292.265,110.633 292.380,111.175 292.208 C 112.070 291.924,113.600 292.748,113.600 293.514 C 113.600 293.800,113.825 294.008,114.100 293.974 C 114.882 293.879,116.400 294.455,116.400 294.847 C 116.400 295.041,116.580 295.200,116.800 295.200 C 117.020 295.200,117.560 295.560,118.000 296.000 C 118.440 296.440,119.166 296.800,119.613 296.800 C 120.059 296.800,120.533 297.080,120.664 297.423 C 120.796 297.766,121.161 297.947,121.477 297.826 C 121.794 297.704,122.619 298.139,123.325 298.801 C 124.026 299.458,124.825 299.997,125.100 299.998 C 125.375 299.999,125.600 300.289,125.600 300.643 C 125.600 301.025,125.824 301.200,126.151 301.074 C 126.454 300.958,126.859 301.011,127.051 301.194 C 127.687 301.797,130.416 303.200,130.954 303.200 C 131.245 303.200,131.948 303.631,132.517 304.158 C 133.085 304.685,133.623 305.044,133.711 304.956 C 133.799 304.867,134.198 305.156,134.598 305.598 C 134.997 306.039,135.566 306.400,135.862 306.400 C 136.158 306.400,136.400 306.580,136.400 306.800 C 136.400 307.020,136.762 307.200,137.205 307.200 C 138.042 307.200,139.381 307.844,140.303 308.690 C 140.597 308.960,141.414 309.455,142.119 309.790 C 142.823 310.125,144.030 310.940,144.800 311.599 C 145.570 312.259,146.487 312.799,146.839 312.799 C 147.687 312.800,149.792 313.868,150.407 314.608 C 150.677 314.934,151.152 315.200,151.462 315.200 C 151.771 315.200,152.124 315.459,152.246 315.775 C 152.367 316.091,152.721 316.252,153.033 316.132 C 153.345 316.012,153.600 316.114,153.600 316.357 C 153.600 316.601,153.836 316.800,154.125 316.800 C 154.413 316.800,155.036 317.160,155.508 317.600 C 155.980 318.040,156.734 318.400,157.183 318.400 C 157.669 318.400,158.000 318.662,158.000 319.047 C 158.000 319.484,158.245 319.629,158.756 319.496 C 159.206 319.378,159.973 319.698,160.656 320.289 C 161.285 320.833,162.475 321.574,163.300 321.934 C 164.125 322.294,164.800 322.799,164.800 323.057 C 164.800 323.328,165.136 323.437,165.600 323.316 C 166.165 323.168,166.400 323.304,166.400 323.777 C 166.400 324.161,166.587 324.332,166.838 324.176 C 167.376 323.844,168.982 324.627,170.651 326.034 C 171.339 326.615,172.464 327.338,173.151 327.642 C 173.838 327.947,174.400 328.331,174.400 328.498 C 174.400 328.664,174.745 328.800,175.166 328.800 C 176.308 328.800,180.939 331.362,181.400 332.248 C 181.622 332.676,182.111 332.957,182.500 332.880 C 182.925 332.796,183.200 332.985,183.200 333.361 C 183.200 333.835,183.480 333.924,184.400 333.740 C 185.332 333.554,185.600 333.643,185.600 334.137 C 185.600 334.530,185.823 334.689,186.179 334.553 C 186.498 334.430,187.162 334.706,187.655 335.165 C 188.148 335.624,188.787 336.000,189.075 336.000 C 189.364 336.000,189.600 336.253,189.600 336.563 C 189.600 336.928,189.880 337.052,190.400 336.916 C 190.910 336.783,191.204 336.905,191.210 337.253 C 191.223 337.925,193.644 339.030,195.797 339.346 C 196.675 339.476,197.455 339.765,197.530 339.991 C 197.747 340.641,201.570 340.487,202.257 339.800 C 202.587 339.470,203.387 339.200,204.034 339.200 C 205.344 339.200,206.640 338.580,207.684 337.453 C 208.066 337.040,208.650 336.810,208.988 336.940 C 209.351 337.079,209.600 336.955,209.600 336.634 C 209.600 336.337,209.915 335.993,210.300 335.871 C 211.202 335.585,213.324 334.305,213.657 333.845 C 213.799 333.650,214.384 333.580,214.957 333.690 C 215.668 333.826,216.000 333.716,216.000 333.345 C 216.000 333.045,216.225 332.800,216.500 332.799 C 216.775 332.799,217.612 332.275,218.361 331.635 C 219.109 330.995,219.964 330.565,220.261 330.679 C 220.585 330.803,220.800 330.610,220.800 330.196 C 220.800 329.704,221.029 329.566,221.600 329.716 C 222.040 329.831,222.400 329.758,222.400 329.553 C 222.400 329.114,224.378 328.235,225.100 328.353 C 225.375 328.398,225.600 328.157,225.600 327.818 C 225.600 327.467,225.945 327.200,226.400 327.200 C 226.840 327.200,227.200 327.020,227.200 326.800 C 227.200 326.580,227.425 326.393,227.700 326.384 C 227.975 326.375,228.823 325.835,229.585 325.184 C 230.347 324.533,231.292 324.000,231.685 324.000 C 232.078 324.000,232.400 323.820,232.400 323.600 C 232.400 323.380,232.715 323.196,233.100 323.191 C 233.485 323.186,234.250 322.830,234.800 322.400 C 235.350 321.970,236.025 321.614,236.300 321.609 C 236.575 321.604,236.800 321.420,236.800 321.200 C 236.800 320.980,237.036 320.800,237.325 320.800 C 237.613 320.800,238.198 320.485,238.625 320.100 C 239.890 318.957,241.491 318.278,242.374 318.509 C 242.828 318.628,243.200 318.543,243.200 318.320 C 243.200 317.553,246.905 315.039,247.362 315.496 C 247.483 315.616,247.695 315.419,247.833 315.057 C 247.972 314.696,248.387 314.400,248.754 314.400 C 249.122 314.400,249.683 314.040,250.000 313.600 C 250.339 313.130,251.035 312.800,251.688 312.800 C 252.300 312.800,252.800 312.620,252.800 312.400 C 252.800 312.180,253.025 312.000,253.300 311.999 C 253.575 311.999,254.430 311.459,255.200 310.800 C 255.970 310.141,256.825 309.601,257.100 309.601 C 257.375 309.600,257.600 309.454,257.600 309.275 C 257.600 309.096,258.230 308.702,259.000 308.400 C 259.770 308.098,260.400 307.704,260.400 307.525 C 260.400 307.346,260.850 307.200,261.400 307.200 C 261.950 307.200,262.400 306.999,262.400 306.753 C 262.400 306.504,262.753 306.399,263.201 306.516 C 263.641 306.631,263.900 306.562,263.776 306.362 C 263.653 306.162,263.968 305.833,264.476 305.630 C 264.984 305.428,265.887 304.798,266.483 304.231 C 267.078 303.664,267.832 303.200,268.159 303.200 C 268.486 303.200,268.864 303.020,269.000 302.800 C 269.136 302.580,269.563 302.400,269.948 302.400 C 270.334 302.400,271.052 302.024,271.545 301.565 C 272.038 301.106,272.702 300.830,273.021 300.953 C 273.364 301.084,273.600 300.936,273.600 300.587 C 273.600 300.264,273.870 300.000,274.200 300.000 C 274.530 300.000,274.800 299.820,274.800 299.600 C 274.800 299.380,274.988 299.200,275.217 299.200 C 275.446 299.200,276.006 298.853,276.461 298.429 C 276.916 298.006,277.515 297.746,277.792 297.852 C 278.070 297.959,278.404 297.766,278.536 297.423 C 278.667 297.080,279.164 296.800,279.641 296.800 C 280.117 296.800,280.797 296.484,281.153 296.097 C 281.509 295.711,282.340 295.131,283.000 294.809 C 283.660 294.488,284.952 293.724,285.872 293.112 C 286.792 292.501,287.917 292.000,288.372 292.000 C 288.827 292.000,289.200 291.864,289.200 291.698 C 289.200 291.531,289.785 291.139,290.500 290.827 C 291.215 290.514,292.035 289.930,292.323 289.529 C 292.610 289.128,293.060 288.796,293.323 288.791 C 293.585 288.786,294.239 288.445,294.775 288.033 C 295.312 287.620,295.987 287.374,296.275 287.484 C 296.574 287.599,296.800 287.409,296.800 287.043 C 296.800 286.624,297.148 286.400,297.800 286.400 C 298.350 286.400,298.800 286.262,298.800 286.094 C 298.800 285.926,299.475 285.475,300.300 285.093 C 302.073 284.269,303.309 283.524,303.637 283.079 C 303.767 282.902,305.027 282.172,306.437 281.457 C 309.602 279.851,310.810 279.147,311.519 278.494 C 312.979 277.151,314.741 276.000,315.338 276.000 C 315.702 276.000,316.000 275.859,316.000 275.686 C 316.000 275.514,316.540 275.054,317.200 274.664 C 317.860 274.274,318.400 273.759,318.400 273.519 C 318.400 273.280,319.480 272.056,320.800 270.800 C 322.138 269.527,323.200 268.170,323.200 267.734 C 323.200 267.303,323.560 266.564,324.000 266.092 C 324.440 265.620,324.800 264.956,324.800 264.617 C 324.800 264.278,325.045 264.000,325.345 264.000 C 325.710 264.000,325.826 263.670,325.697 262.998 C 325.592 262.446,325.683 261.771,325.899 261.498 C 326.126 261.210,326.404 255.334,326.557 247.600 C 326.703 240.230,326.952 234.155,327.111 234.100 C 327.473 233.975,327.426 155.293,327.064 154.931 C 326.562 154.429,326.762 146.400,327.276 146.400 C 327.544 146.400,327.460 146.180,327.086 145.900 C 326.512 145.469,326.394 144.218,326.233 136.800 C 326.008 126.425,325.940 125.600,325.300 125.600 C 325.025 125.600,324.800 125.240,324.800 124.800 C 324.800 124.360,324.665 123.999,324.500 123.997 C 324.094 123.993,323.200 122.014,323.200 121.120 C 323.200 120.724,323.020 120.400,322.800 120.400 C 322.580 120.400,322.400 120.130,322.400 119.800 C 322.400 119.470,322.193 119.200,321.940 119.200 C 321.688 119.200,320.859 118.525,320.099 117.700 C 316.806 114.125,316.194 113.600,315.319 113.600 C 314.757 113.600,314.400 113.360,314.400 112.982 C 314.400 112.643,314.175 112.416,313.900 112.479 C 313.625 112.542,312.753 112.100,311.962 111.497 C 311.171 110.894,310.316 110.400,310.062 110.400 C 309.808 110.400,309.600 110.220,309.600 110.000 C 309.600 109.780,309.412 109.600,309.183 109.600 C 308.954 109.600,308.380 109.240,307.908 108.800 C 307.436 108.360,306.723 108.000,306.325 108.000 C 305.926 108.000,305.600 107.736,305.600 107.413 C 305.600 107.075,305.363 106.916,305.043 107.039 C 304.737 107.156,303.522 106.522,302.343 105.628 C 301.164 104.735,299.975 104.003,299.700 104.002 C 299.425 104.001,299.200 103.747,299.200 103.437 C 299.200 103.077,298.920 102.948,298.420 103.079 C 297.991 103.191,297.136 102.943,296.520 102.527 C 295.904 102.111,294.860 101.509,294.200 101.188 C 293.540 100.868,292.709 100.289,292.353 99.903 C 291.997 99.516,291.547 99.196,291.353 99.191 C 291.159 99.186,290.550 98.830,290.000 98.400 C 289.450 97.970,288.683 97.614,288.295 97.609 C 287.657 97.601,286.105 96.905,285.600 96.400 C 285.490 96.290,284.995 95.975,284.500 95.700 C 282.252 94.451,281.799 94.170,281.315 93.729 C 281.032 93.469,280.800 93.081,280.800 92.866 C 280.800 92.651,280.431 92.572,279.979 92.690 C 279.190 92.896,275.600 91.356,275.600 90.812 C 275.600 90.667,274.970 90.302,274.200 90.000 C 273.430 89.698,272.800 89.304,272.800 89.125 C 272.800 88.946,272.564 88.800,272.275 88.800 C 271.987 88.800,271.364 88.440,270.892 88.000 C 270.420 87.560,269.874 87.200,269.678 87.200 C 268.964 87.200,266.829 85.943,265.927 84.991 C 265.417 84.453,264.857 84.011,264.683 84.007 C 264.509 84.003,263.980 83.640,263.508 83.200 C 263.036 82.760,262.413 82.400,262.125 82.400 C 261.836 82.400,261.600 82.220,261.600 82.000 C 261.600 81.780,261.240 81.600,260.800 81.600 C 260.360 81.600,260.000 81.347,260.000 81.037 C 260.000 80.672,259.720 80.548,259.200 80.684 C 258.629 80.834,258.400 80.696,258.400 80.204 C 258.400 79.793,258.184 79.597,257.866 79.719 C 257.238 79.960,254.698 78.089,254.997 77.605 C 255.109 77.423,254.841 77.369,254.401 77.484 C 253.953 77.601,253.600 77.496,253.600 77.247 C 253.600 77.001,253.060 76.800,252.400 76.800 C 251.564 76.800,251.200 76.605,251.200 76.157 C 251.200 75.773,250.977 75.600,250.644 75.728 C 250.338 75.845,249.744 75.639,249.324 75.271 C 248.608 74.643,248.171 74.365,245.904 73.100 C 245.412 72.825,244.716 72.285,244.357 71.900 C 243.999 71.515,243.317 71.200,242.841 71.200 C 242.364 71.200,241.869 70.925,241.740 70.588 C 241.605 70.237,241.222 70.066,240.840 70.187 C 240.450 70.311,239.937 70.068,239.599 69.599 C 239.283 69.160,238.793 68.800,238.512 68.800 C 238.230 68.800,238.000 68.620,238.000 68.400 C 238.000 68.180,237.730 68.000,237.400 68.000 C 237.070 68.000,236.800 67.718,236.800 67.373 C 236.800 66.928,236.568 66.820,236.000 67.000 C 235.541 67.146,235.200 67.072,235.200 66.827 C 235.200 66.592,234.840 66.400,234.400 66.400 C 233.932 66.400,233.600 66.133,233.600 65.757 C 233.600 65.343,233.381 65.198,232.984 65.351 C 232.027 65.718,228.800 63.570,228.800 62.565 C 228.800 62.272,228.479 62.159,228.000 62.284 C 227.553 62.401,227.200 62.296,227.200 62.047 C 227.200 60.953,223.317 61.545,222.261 62.800 " stroke="none" fill="#fb2414" fill-rule="evenodd"></path><path id="path1" d="M221.700 61.816 C 220.985 62.565,220.400 63.362,220.400 63.589 C 220.400 64.362,221.251 64.001,222.261 62.800 C 223.285 61.583,227.200 60.949,227.200 62.000 C 227.200 62.220,227.470 62.400,227.800 62.400 C 228.130 62.400,228.400 62.130,228.400 61.800 C 228.400 61.467,228.044 61.200,227.600 61.200 C 227.160 61.200,226.800 61.020,226.800 60.800 C 226.800 59.697,223.001 60.454,221.700 61.816 M173.300 61.700 C 173.392 61.975,173.887 62.200,174.400 62.200 C 174.913 62.200,175.408 61.975,175.500 61.700 C 175.610 61.370,175.236 61.200,174.400 61.200 C 173.564 61.200,173.190 61.370,173.300 61.700 M170.400 62.800 C 170.083 63.240,169.580 63.600,169.283 63.600 C 168.393 63.600,167.425 64.785,167.915 65.275 C 168.433 65.793,172.400 63.172,172.400 62.311 C 172.400 61.675,170.956 62.028,170.400 62.800 M176.000 62.404 C 176.000 62.626,176.540 63.372,177.200 64.063 L 178.400 65.319 178.400 84.764 L 178.400 104.209 177.100 105.707 C 176.385 106.531,175.575 107.204,175.300 107.203 C 175.025 107.201,174.800 107.380,174.800 107.600 C 174.800 107.820,174.517 108.000,174.172 108.000 C 173.827 108.000,172.723 108.585,171.720 109.300 C 169.239 111.068,167.270 112.268,165.600 113.029 C 162.843 114.286,161.168 115.243,160.400 116.000 C 159.825 116.567,158.890 117.155,157.300 117.950 C 156.915 118.142,155.790 118.709,154.800 119.210 C 153.810 119.710,152.596 120.317,152.103 120.560 C 151.088 121.058,150.890 122.000,151.800 122.000 C 152.130 122.000,152.400 121.820,152.400 121.600 C 152.400 121.380,152.760 121.200,153.200 121.200 C 153.640 121.200,154.000 121.020,154.000 120.800 C 154.000 120.580,154.360 120.400,154.800 120.400 C 155.240 120.400,155.600 120.220,155.600 120.000 C 155.600 119.780,155.960 119.600,156.400 119.600 C 156.840 119.600,157.200 119.420,157.200 119.200 C 157.200 118.980,157.560 118.800,158.000 118.800 C 158.440 118.800,158.800 118.620,158.800 118.400 C 158.800 118.180,159.088 118.000,159.440 118.000 C 159.791 118.000,160.583 117.460,161.200 116.800 C 161.817 116.140,162.609 115.600,162.960 115.600 C 163.312 115.600,163.600 115.420,163.600 115.200 C 163.600 114.980,163.960 114.800,164.400 114.800 C 164.840 114.800,165.200 114.620,165.200 114.400 C 165.200 114.180,165.560 114.000,166.000 114.000 C 166.440 114.000,166.800 113.820,166.800 113.600 C 166.800 113.380,167.160 113.200,167.600 113.200 C 168.040 113.200,168.400 113.020,168.400 112.800 C 168.400 112.580,168.760 112.400,169.200 112.400 C 169.640 112.400,170.000 112.241,170.000 112.047 C 170.000 111.852,170.360 111.599,170.800 111.484 C 171.240 111.369,171.600 110.988,171.600 110.637 C 171.600 110.267,171.935 110.000,172.400 110.000 C 172.840 110.000,173.200 109.820,173.200 109.600 C 173.200 109.380,173.560 109.200,174.000 109.200 C 174.440 109.200,174.800 109.020,174.800 108.800 C 174.800 108.580,175.256 108.400,175.813 108.400 C 176.411 108.400,176.931 108.114,177.085 107.700 C 177.228 107.315,177.672 106.709,178.072 106.353 C 178.473 105.997,178.800 105.412,178.800 105.053 C 178.800 104.694,178.980 104.400,179.200 104.400 C 179.461 104.400,179.600 97.600,179.600 84.800 C 179.600 72.000,179.461 65.200,179.200 65.200 C 178.980 65.200,178.800 64.922,178.800 64.582 C 178.800 63.886,177.060 62.000,176.418 62.000 C 176.188 62.000,176.000 62.182,176.000 62.404 M228.800 62.528 C 228.800 63.604,232.255 65.905,232.901 65.259 C 233.375 64.785,232.385 63.600,231.517 63.600 C 231.220 63.600,230.717 63.240,230.400 62.800 C 229.747 61.894,228.800 61.733,228.800 62.528 M219.600 83.200 C 219.600 95.467,219.739 102.000,220.000 102.000 C 220.220 102.000,220.400 102.360,220.400 102.800 C 220.400 103.240,220.580 103.600,220.800 103.600 C 221.020 103.600,221.200 103.920,221.200 104.312 C 221.200 104.703,221.560 105.283,222.000 105.600 C 222.440 105.917,222.800 106.420,222.800 106.717 C 222.800 107.449,223.800 108.400,224.571 108.400 C 224.917 108.400,225.200 108.580,225.200 108.800 C 225.200 109.020,225.560 109.200,226.000 109.200 C 226.440 109.200,226.800 109.380,226.800 109.600 C 226.800 109.820,227.160 110.000,227.600 110.000 C 228.133 110.000,228.400 110.267,228.400 110.800 C 228.400 111.333,228.667 111.600,229.200 111.600 C 229.640 111.600,230.000 111.780,230.000 112.000 C 230.000 112.220,230.360 112.400,230.800 112.400 C 231.240 112.400,231.600 112.580,231.600 112.800 C 231.600 113.020,231.870 113.200,232.200 113.200 C 232.530 113.200,232.800 112.930,232.800 112.600 C 232.800 112.270,232.592 112.000,232.338 112.000 C 232.084 112.000,231.286 111.550,230.564 111.000 C 229.843 110.450,229.081 110.000,228.869 110.000 C 228.658 110.000,228.392 109.757,228.278 109.459 C 228.164 109.162,227.164 108.487,226.055 107.959 C 224.947 107.432,223.806 106.550,223.521 106.000 C 223.235 105.450,222.887 104.910,222.747 104.800 C 220.864 103.319,220.800 102.603,220.800 82.988 C 220.800 66.732,220.725 64.400,220.200 64.400 C 219.675 64.400,219.600 66.756,219.600 83.200 M164.800 66.000 C 164.483 66.440,163.903 66.800,163.512 66.800 C 163.120 66.800,162.800 66.980,162.800 67.200 C 162.800 67.420,162.440 67.600,162.000 67.600 C 161.560 67.600,161.200 67.780,161.200 68.000 C 161.200 68.220,160.880 68.400,160.488 68.400 C 160.097 68.400,159.517 68.760,159.200 69.200 C 158.861 69.670,158.165 70.000,157.512 70.000 C 156.900 70.000,156.400 70.180,156.400 70.400 C 156.400 70.620,156.061 70.800,155.647 70.800 C 155.230 70.800,154.800 71.157,154.684 71.600 C 154.569 72.040,154.188 72.400,153.837 72.400 C 153.487 72.400,153.200 72.580,153.200 72.800 C 153.200 73.020,152.840 73.200,152.400 73.200 C 151.960 73.200,151.600 73.380,151.600 73.600 C 151.600 73.820,151.280 74.000,150.888 74.000 C 150.497 74.000,149.917 74.360,149.600 74.800 C 149.261 75.270,148.565 75.600,147.912 75.600 C 147.300 75.600,146.800 75.780,146.800 76.000 C 146.800 76.220,146.440 76.400,146.000 76.400 C 145.560 76.400,145.200 76.580,145.200 76.800 C 145.200 77.020,144.913 77.200,144.563 77.200 C 144.212 77.200,143.831 77.560,143.716 78.000 C 143.600 78.443,143.170 78.800,142.753 78.800 C 142.339 78.800,142.000 78.980,142.000 79.200 C 142.000 79.420,141.640 79.600,141.200 79.600 C 140.760 79.600,140.400 79.780,140.400 80.000 C 140.400 80.220,140.040 80.400,139.600 80.400 C 139.160 80.400,138.800 80.580,138.800 80.800 C 138.800 81.020,138.440 81.200,138.000 81.200 C 137.560 81.200,137.200 81.380,137.200 81.600 C 137.200 81.820,136.880 82.000,136.488 82.000 C 136.097 82.000,135.517 82.360,135.200 82.800 C 134.883 83.240,134.343 83.600,134.000 83.600 C 133.657 83.600,133.117 83.960,132.800 84.400 C 132.483 84.840,131.903 85.200,131.512 85.200 C 131.120 85.200,130.800 85.380,130.800 85.600 C 130.800 85.820,130.300 86.000,129.688 86.000 C 129.035 86.000,128.339 86.330,128.000 86.800 C 127.683 87.240,127.180 87.600,126.883 87.600 C 126.238 87.600,125.200 88.569,125.200 89.171 C 125.200 89.407,125.470 89.600,125.800 89.600 C 126.130 89.600,126.400 89.441,126.400 89.247 C 126.400 89.052,126.715 88.790,127.100 88.664 C 127.485 88.538,128.570 87.977,129.511 87.418 C 130.452 86.858,131.448 86.400,131.726 86.400 C 132.003 86.400,132.853 85.867,133.615 85.216 C 134.377 84.565,135.225 84.025,135.500 84.016 C 135.775 84.007,136.000 83.864,136.000 83.698 C 136.000 83.531,136.585 83.143,137.300 82.835 C 138.015 82.527,139.078 81.943,139.662 81.537 C 140.246 81.132,140.933 80.800,141.190 80.800 C 141.603 80.800,145.084 78.611,145.600 78.026 C 146.052 77.515,147.637 76.800,148.319 76.800 C 148.721 76.800,149.407 76.485,149.845 76.100 C 150.684 75.362,151.879 74.617,153.700 73.697 C 154.305 73.391,154.800 72.975,154.800 72.771 C 154.800 72.567,155.048 72.400,155.351 72.400 C 155.654 72.400,156.126 72.130,156.400 71.800 C 156.674 71.470,157.246 71.200,157.671 71.200 C 158.096 71.200,159.504 70.480,160.800 69.600 C 162.096 68.720,163.327 68.000,163.535 68.000 C 163.744 68.000,164.019 67.728,164.146 67.396 C 164.273 67.064,164.518 66.823,164.689 66.861 C 165.265 66.987,167.200 66.024,167.200 65.610 C 167.200 64.882,165.395 65.175,164.800 66.000 M233.600 65.800 C 233.600 66.130,233.945 66.400,234.367 66.400 C 234.788 66.400,235.216 66.625,235.317 66.900 C 235.458 67.286,235.615 67.292,236.004 66.926 C 236.408 66.546,236.384 66.327,235.883 65.826 C 235.083 65.026,233.600 65.009,233.600 65.800 M236.800 67.400 C 236.800 67.730,237.070 68.000,237.400 68.000 C 237.730 68.000,238.000 68.180,238.000 68.400 C 238.000 68.620,238.204 68.800,238.453 68.800 C 238.702 68.800,239.246 69.192,239.662 69.671 C 240.212 70.305,240.537 70.423,240.858 70.102 C 241.382 69.578,239.612 67.600,238.618 67.600 C 238.278 67.600,238.000 67.420,238.000 67.200 C 238.000 66.980,237.730 66.800,237.400 66.800 C 237.070 66.800,236.800 67.070,236.800 67.400 M241.698 70.500 C 241.789 70.775,242.293 71.063,242.818 71.139 C 243.344 71.216,244.052 71.576,244.391 71.939 C 244.731 72.303,245.412 72.825,245.904 73.100 C 248.175 74.368,248.609 74.644,249.340 75.286 C 249.770 75.664,250.274 75.878,250.461 75.763 C 251.095 75.370,250.803 74.326,250.000 74.116 C 249.560 74.001,249.200 73.748,249.200 73.553 C 249.200 73.359,248.840 73.200,248.400 73.200 C 247.960 73.200,247.600 73.020,247.600 72.800 C 247.600 72.580,247.328 72.400,246.996 72.400 C 246.664 72.400,245.828 71.860,245.137 71.200 C 243.848 69.969,241.356 69.461,241.698 70.500 M251.200 76.200 C 251.200 76.600,251.600 76.800,252.400 76.800 C 253.060 76.800,253.600 76.980,253.600 77.200 C 253.600 77.420,253.825 77.607,254.100 77.616 C 254.375 77.625,255.222 78.164,255.982 78.814 C 256.820 79.531,257.509 79.851,257.731 79.629 C 258.240 79.120,256.122 77.067,255.382 77.351 C 255.062 77.474,254.800 77.375,254.800 77.132 C 254.800 76.421,253.493 75.627,252.300 75.613 C 251.583 75.604,251.200 75.809,251.200 76.200 M258.400 80.200 C 258.400 80.530,258.670 80.800,259.000 80.800 C 259.330 80.800,259.600 80.530,259.600 80.200 C 259.600 79.870,259.330 79.600,259.000 79.600 C 258.670 79.600,258.400 79.870,258.400 80.200 M260.000 81.000 C 260.000 81.333,260.356 81.600,260.800 81.600 C 261.240 81.600,261.600 81.780,261.600 82.000 C 261.600 82.220,261.836 82.400,262.125 82.400 C 262.413 82.400,263.036 82.760,263.508 83.200 C 263.980 83.640,264.509 84.003,264.683 84.007 C 264.857 84.011,265.417 84.453,265.927 84.991 C 266.829 85.943,268.964 87.200,269.678 87.200 C 269.874 87.200,270.420 87.560,270.892 88.000 C 271.364 88.440,271.987 88.800,272.275 88.800 C 272.564 88.800,272.800 88.946,272.800 89.125 C 272.800 89.304,273.430 89.698,274.200 90.000 C 274.970 90.302,275.600 90.662,275.600 90.800 C 275.600 91.210,278.811 92.800,279.638 92.800 C 280.057 92.800,280.400 92.530,280.400 92.200 C 280.400 91.811,280.010 91.600,279.288 91.600 C 278.635 91.600,277.939 91.270,277.600 90.800 C 277.283 90.360,276.703 90.000,276.312 90.000 C 275.920 90.000,275.600 89.820,275.600 89.600 C 275.600 89.380,275.280 89.200,274.888 89.200 C 274.497 89.200,273.917 88.840,273.600 88.400 C 273.283 87.960,272.743 87.600,272.400 87.600 C 272.057 87.600,271.517 87.240,271.200 86.800 C 270.861 86.330,270.165 86.000,269.512 86.000 C 268.900 86.000,268.400 85.820,268.400 85.600 C 268.400 85.380,268.040 85.200,267.600 85.200 C 267.067 85.200,266.800 84.933,266.800 84.400 C 266.800 83.900,266.533 83.600,266.088 83.600 C 265.697 83.600,265.117 83.240,264.800 82.800 C 264.483 82.360,263.943 82.000,263.600 82.000 C 263.257 82.000,262.717 81.640,262.400 81.200 C 261.721 80.258,260.000 80.114,260.000 81.000 M123.200 90.000 C 122.883 90.440,122.303 90.800,121.912 90.800 C 121.520 90.800,121.200 90.980,121.200 91.200 C 121.200 91.420,120.700 91.600,120.088 91.600 C 119.435 91.600,118.739 91.930,118.400 92.400 C 118.083 92.840,117.580 93.200,117.283 93.200 C 116.548 93.200,115.494 94.305,115.783 94.772 C 116.038 95.186,119.200 93.663,119.200 93.126 C 119.200 92.947,119.549 92.800,119.976 92.800 C 120.403 92.800,120.864 92.620,121.000 92.400 C 121.136 92.180,121.552 92.000,121.924 92.000 C 122.723 91.999,124.800 90.305,124.800 89.653 C 124.800 88.922,123.825 89.133,123.200 90.000 M280.800 92.829 C 280.800 93.064,281.032 93.469,281.315 93.729 C 281.799 94.170,282.252 94.451,284.500 95.700 C 284.995 95.975,285.490 96.290,285.600 96.400 C 286.105 96.905,287.657 97.601,288.295 97.609 C 288.683 97.614,289.450 97.970,290.000 98.400 C 290.550 98.830,291.159 99.186,291.353 99.191 C 291.547 99.196,291.997 99.516,292.353 99.903 C 292.709 100.289,293.540 100.868,294.200 101.188 C 294.860 101.509,295.878 102.093,296.462 102.486 C 297.757 103.357,298.800 103.408,298.800 102.600 C 298.800 102.267,298.444 102.000,298.000 102.000 C 297.560 102.000,297.200 101.820,297.200 101.600 C 297.200 101.380,296.880 101.200,296.488 101.200 C 296.097 101.200,295.517 100.840,295.200 100.400 C 294.883 99.960,294.343 99.600,294.000 99.600 C 293.657 99.600,293.117 99.240,292.800 98.800 C 292.483 98.360,291.903 98.000,291.512 98.000 C 291.120 98.000,290.800 97.820,290.800 97.600 C 290.800 97.380,290.440 97.200,290.000 97.200 C 289.560 97.200,289.200 97.020,289.200 96.800 C 289.200 96.580,288.700 96.400,288.088 96.400 C 287.435 96.400,286.739 96.070,286.400 95.600 C 286.083 95.160,285.503 94.800,285.112 94.800 C 284.720 94.800,284.400 94.620,284.400 94.400 C 284.400 94.180,284.080 94.000,283.688 94.000 C 283.297 94.000,282.717 93.640,282.400 93.200 C 281.785 92.346,280.800 92.118,280.800 92.829 M114.000 95.200 C 114.000 95.420,113.640 95.600,113.200 95.600 C 112.760 95.600,112.400 95.780,112.400 96.000 C 112.400 96.220,111.984 96.400,111.475 96.400 C 110.967 96.400,110.164 96.760,109.692 97.200 C 109.220 97.640,108.596 98.000,108.305 98.000 C 108.014 98.000,107.517 98.360,107.200 98.800 C 106.883 99.240,106.343 99.600,106.000 99.600 C 105.657 99.600,105.117 99.960,104.800 100.400 C 104.483 100.840,103.903 101.200,103.512 101.200 C 103.120 101.200,102.800 101.380,102.800 101.600 C 102.800 101.820,102.440 102.000,102.000 102.000 C 101.560 102.000,101.200 102.186,101.200 102.413 C 101.200 103.210,102.383 103.267,103.486 102.523 C 104.099 102.109,105.066 101.538,105.636 101.252 C 106.206 100.967,107.286 100.209,108.036 99.568 C 108.786 98.926,109.625 98.401,109.900 98.401 C 110.175 98.400,110.400 98.220,110.400 98.000 C 110.400 97.780,110.858 97.600,111.417 97.600 C 111.976 97.600,112.820 97.240,113.292 96.800 C 113.764 96.360,114.387 96.000,114.675 96.000 C 114.964 96.000,115.200 95.730,115.200 95.400 C 115.200 95.070,114.930 94.800,114.600 94.800 C 114.270 94.800,114.000 94.980,114.000 95.200 M99.600 103.200 C 99.600 103.420,99.240 103.600,98.800 103.600 C 98.360 103.600,98.000 103.780,98.000 104.000 C 98.000 104.220,97.722 104.400,97.382 104.400 C 96.500 104.400,94.617 106.377,95.069 106.829 C 95.291 107.051,95.980 106.731,96.818 106.014 C 97.578 105.364,98.425 104.825,98.700 104.816 C 98.975 104.807,99.200 104.620,99.200 104.400 C 99.200 104.180,99.560 104.000,100.000 104.000 C 100.444 104.000,100.800 103.733,100.800 103.400 C 100.800 103.070,100.530 102.800,100.200 102.800 C 99.870 102.800,99.600 102.980,99.600 103.200 M299.200 103.400 C 299.200 103.730,299.425 104.001,299.700 104.002 C 299.975 104.003,301.149 104.723,302.308 105.602 C 304.452 107.227,305.200 107.532,305.200 106.782 C 305.200 106.140,303.314 104.400,302.618 104.400 C 302.278 104.400,302.000 104.220,302.000 104.000 C 302.000 103.780,301.640 103.600,301.200 103.600 C 300.760 103.600,300.400 103.420,300.400 103.200 C 300.400 102.980,300.130 102.800,299.800 102.800 C 299.470 102.800,299.200 103.070,299.200 103.400 M91.292 107.600 C 90.820 108.040,90.233 108.400,89.988 108.400 C 89.421 108.400,88.400 109.410,88.400 109.971 C 88.400 110.207,88.670 110.400,89.000 110.400 C 89.330 110.400,89.600 110.220,89.600 110.000 C 89.600 109.780,89.797 109.600,90.038 109.600 C 90.279 109.600,90.954 109.261,91.538 108.847 C 92.122 108.432,92.945 108.027,93.367 107.947 C 93.789 107.866,94.209 107.575,94.300 107.300 C 94.574 106.478,92.247 106.710,91.292 107.600 M305.600 107.400 C 305.600 107.730,305.926 108.000,306.325 108.000 C 306.723 108.000,307.436 108.360,307.908 108.800 C 308.380 109.240,308.954 109.600,309.183 109.600 C 309.412 109.600,309.600 109.780,309.600 110.000 C 309.600 110.220,309.829 110.400,310.109 110.400 C 310.389 110.400,311.265 110.934,312.056 111.586 C 313.541 112.810,314.000 112.798,314.000 111.533 C 314.000 111.067,313.709 110.800,313.200 110.800 C 312.760 110.800,312.400 110.620,312.400 110.400 C 312.400 110.180,312.080 110.000,311.688 110.000 C 311.297 110.000,310.717 109.640,310.400 109.200 C 310.083 108.760,309.543 108.400,309.200 108.400 C 308.857 108.400,308.317 108.040,308.000 107.600 C 307.321 106.658,305.600 106.514,305.600 107.400 M86.100 111.010 C 85.061 112.120,84.988 112.400,85.739 112.400 C 86.428 112.400,88.000 111.047,88.000 110.453 C 88.000 109.709,87.061 109.984,86.100 111.010 M82.000 112.800 C 82.000 113.020,81.640 113.200,81.200 113.200 C 80.667 113.200,80.400 113.467,80.400 114.000 C 80.400 114.440,80.220 114.800,80.000 114.800 C 79.780 114.800,79.600 115.070,79.600 115.400 C 79.600 116.320,80.251 116.117,81.202 114.900 C 81.675 114.295,82.528 113.710,83.098 113.600 C 84.634 113.304,84.736 112.400,83.233 112.400 C 82.555 112.400,82.000 112.580,82.000 112.800 M314.400 113.000 C 314.400 113.359,314.769 113.600,315.319 113.600 C 316.194 113.600,316.806 114.125,320.099 117.700 C 320.859 118.525,321.688 119.200,321.940 119.200 C 322.193 119.200,322.400 119.470,322.400 119.800 C 322.400 120.130,322.580 120.400,322.800 120.400 C 323.020 120.400,323.200 120.724,323.200 121.120 C 323.200 122.014,324.094 123.993,324.500 123.997 C 324.665 123.999,324.800 124.360,324.800 124.800 C 324.800 125.244,325.067 125.600,325.400 125.600 C 326.286 125.600,326.142 123.879,325.200 123.200 C 324.730 122.861,324.400 122.165,324.400 121.512 C 324.400 120.900,324.220 120.400,324.000 120.400 C 323.780 120.400,323.600 120.117,323.600 119.771 C 323.600 119.044,322.663 118.000,322.010 118.000 C 321.436 118.000,319.600 116.172,319.600 115.600 C 319.600 114.944,317.724 113.200,317.018 113.200 C 316.678 113.200,316.400 113.020,316.400 112.800 C 316.400 112.580,315.950 112.400,315.400 112.400 C 314.778 112.400,314.400 112.627,314.400 113.000 M233.200 113.400 C 233.200 113.730,233.470 114.000,233.800 114.000 C 234.130 114.000,234.400 113.730,234.400 113.400 C 234.400 113.070,234.130 112.800,233.800 112.800 C 233.470 112.800,233.200 113.070,233.200 113.400 M234.800 114.200 C 234.800 114.530,235.120 114.800,235.512 114.800 C 235.903 114.800,236.483 115.160,236.800 115.600 C 237.117 116.040,237.631 116.400,237.941 116.400 C 238.252 116.400,238.837 116.781,239.241 117.247 C 239.665 117.737,240.235 117.996,240.588 117.860 C 240.925 117.731,241.200 117.825,241.200 118.068 C 241.200 118.730,242.476 119.573,243.500 119.587 C 243.995 119.594,244.400 119.780,244.400 120.000 C 244.400 120.220,244.760 120.400,245.200 120.400 C 245.640 120.400,246.000 120.580,246.000 120.800 C 246.000 121.020,246.270 121.200,246.600 121.200 C 247.836 121.200,247.120 120.169,245.281 119.300 C 244.233 118.805,243.156 118.400,242.888 118.400 C 242.620 118.400,242.400 118.220,242.400 118.000 C 242.400 117.780,242.175 117.600,241.900 117.599 C 241.625 117.599,240.770 117.059,240.000 116.400 C 239.230 115.741,238.375 115.201,238.100 115.201 C 237.825 115.200,237.599 115.065,237.597 114.900 C 237.594 114.594,235.700 113.600,235.120 113.600 C 234.944 113.600,234.800 113.870,234.800 114.200 M76.500 117.410 C 76.005 117.939,75.600 118.648,75.600 118.986 C 75.600 119.324,75.420 119.600,75.200 119.600 C 74.980 119.600,74.800 119.960,74.800 120.400 C 74.800 120.840,74.620 121.200,74.400 121.200 C 74.180 121.200,74.000 121.520,74.000 121.912 C 74.000 122.303,73.640 122.883,73.200 123.200 C 72.647 123.599,72.400 124.235,72.400 125.265 C 72.400 126.083,72.220 126.864,72.000 127.000 C 71.446 127.342,71.446 262.800,72.000 262.800 C 72.220 262.800,72.400 263.480,72.400 264.312 C 72.400 265.365,72.643 265.998,73.200 266.400 C 73.640 266.717,74.000 267.220,74.000 267.517 C 74.000 268.468,75.184 269.376,75.722 268.838 C 76.025 268.535,76.052 268.266,75.797 268.083 C 75.424 267.817,74.863 266.923,74.049 265.300 C 72.830 262.868,72.800 261.174,72.800 194.295 C 72.800 149.761,72.936 126.763,73.200 126.600 C 73.420 126.464,73.600 126.009,73.600 125.589 C 73.600 125.168,73.988 124.144,74.462 123.312 C 74.935 122.480,75.700 121.080,76.162 120.200 C 76.623 119.320,77.405 118.272,77.900 117.871 C 78.395 117.470,78.800 116.975,78.800 116.771 C 78.800 116.063,77.395 116.454,76.500 117.410 M247.807 121.189 C 247.490 121.702,249.360 123.600,250.182 123.600 C 250.522 123.600,250.800 123.780,250.800 124.000 C 250.800 124.220,251.340 124.400,252.000 124.400 C 252.660 124.400,253.200 124.580,253.200 124.800 C 253.200 125.020,253.494 125.200,253.853 125.200 C 254.212 125.200,254.837 125.581,255.241 126.047 C 255.665 126.537,256.235 126.796,256.588 126.660 C 256.925 126.531,257.200 126.612,257.200 126.841 C 257.200 127.433,258.244 128.400,258.883 128.400 C 259.180 128.400,259.683 128.760,260.000 129.200 C 260.380 129.727,261.035 130.000,261.922 130.000 C 263.459 130.000,263.534 129.087,262.014 128.865 C 261.507 128.791,260.722 128.386,260.270 127.965 C 259.819 127.544,259.213 127.200,258.925 127.200 C 258.636 127.200,258.400 127.020,258.400 126.800 C 258.400 126.580,258.168 126.400,257.885 126.400 C 257.602 126.400,256.747 125.867,255.985 125.216 C 255.223 124.565,254.296 124.025,253.924 124.016 C 253.552 124.007,253.136 123.820,253.000 123.600 C 252.864 123.380,252.324 123.200,251.800 123.200 C 251.276 123.200,250.741 123.028,250.612 122.819 C 250.098 121.988,248.049 120.798,247.807 121.189 M149.424 122.613 C 148.996 122.936,148.231 123.200,147.724 123.200 C 147.216 123.200,146.800 123.380,146.800 123.600 C 146.800 123.820,146.485 124.000,146.100 124.000 C 145.715 124.001,144.864 124.462,144.210 125.025 C 143.555 125.587,142.455 126.316,141.764 126.644 C 141.073 126.972,140.131 127.591,139.671 128.020 C 139.210 128.449,138.567 128.800,138.240 128.800 C 137.914 128.800,137.536 128.980,137.400 129.200 C 137.264 129.420,136.822 129.600,136.419 129.600 C 136.015 129.600,135.145 130.095,134.485 130.700 C 133.314 131.774,132.317 132.452,130.900 133.139 C 130.515 133.326,129.660 133.787,129.000 134.164 C 128.340 134.541,127.485 134.949,127.100 135.071 C 126.715 135.193,126.400 135.452,126.400 135.647 C 126.400 135.841,126.168 136.000,125.884 136.000 C 125.600 136.000,124.572 136.720,123.600 137.600 C 122.621 138.486,121.423 139.200,120.916 139.200 C 120.368 139.200,120.000 139.441,120.000 139.800 C 120.000 140.173,120.378 140.400,121.000 140.400 C 121.550 140.400,122.000 140.220,122.000 140.000 C 122.000 139.780,122.288 139.600,122.640 139.600 C 122.991 139.600,123.783 139.060,124.400 138.400 C 125.017 137.740,125.769 137.200,126.072 137.200 C 126.375 137.200,126.883 136.840,127.200 136.400 C 127.517 135.960,128.097 135.600,128.488 135.600 C 128.880 135.600,129.200 135.420,129.200 135.200 C 129.200 134.980,129.560 134.800,130.000 134.800 C 130.440 134.800,130.800 134.620,130.800 134.400 C 130.800 134.180,131.160 134.000,131.600 134.000 C 132.040 134.000,132.400 133.820,132.400 133.600 C 132.400 133.380,132.688 133.200,133.040 133.200 C 133.391 133.200,134.183 132.660,134.800 132.000 C 135.417 131.340,136.209 130.800,136.560 130.800 C 136.912 130.800,137.200 130.620,137.200 130.400 C 137.200 130.180,137.700 130.000,138.312 130.000 C 138.965 130.000,139.661 129.670,140.000 129.200 C 140.317 128.760,140.857 128.400,141.200 128.400 C 141.543 128.400,142.083 128.040,142.400 127.600 C 142.717 127.160,143.257 126.800,143.600 126.800 C 143.943 126.800,144.483 126.440,144.800 126.000 C 145.117 125.560,145.697 125.200,146.088 125.200 C 146.480 125.200,146.800 125.020,146.800 124.800 C 146.800 124.580,147.340 124.400,148.000 124.400 C 148.660 124.400,149.200 124.220,149.200 124.000 C 149.200 123.780,149.560 123.600,150.000 123.600 C 150.533 123.600,150.800 123.333,150.800 122.800 C 150.800 121.857,150.480 121.813,149.424 122.613 M325.810 127.300 C 325.975 128.015,326.220 132.455,326.355 137.167 C 326.536 143.487,326.731 145.778,327.100 145.901 C 327.490 146.030,327.600 144.122,327.600 137.233 C 327.600 131.611,327.455 128.400,327.200 128.400 C 326.980 128.400,326.800 127.860,326.800 127.200 C 326.800 126.362,326.605 126.000,326.155 126.000 C 325.632 126.000,325.566 126.246,325.810 127.300 M263.802 129.997 C 263.489 130.504,265.366 132.400,266.182 132.400 C 266.522 132.400,266.800 132.580,266.800 132.800 C 266.800 133.020,267.160 133.200,267.600 133.200 C 268.040 133.200,268.400 133.380,268.400 133.600 C 268.400 133.820,268.670 134.000,269.000 134.000 C 270.142 134.000,269.594 132.986,268.100 132.337 C 267.275 131.978,266.096 131.215,265.479 130.642 C 264.220 129.471,264.145 129.442,263.802 129.997 M270.000 134.200 C 270.000 134.533,270.356 134.800,270.800 134.800 C 271.240 134.800,271.600 134.980,271.600 135.200 C 271.600 135.420,271.920 135.600,272.312 135.600 C 272.703 135.600,273.283 135.960,273.600 136.400 C 273.917 136.840,274.497 137.200,274.888 137.200 C 275.280 137.200,275.600 137.483,275.600 137.829 C 275.600 138.637,276.563 139.600,277.371 139.600 C 277.717 139.600,278.000 139.780,278.000 140.000 C 278.000 140.220,278.283 140.400,278.629 140.400 C 279.400 140.400,280.400 141.351,280.400 142.083 C 280.400 142.380,280.760 142.883,281.200 143.200 C 281.640 143.517,282.000 144.097,282.000 144.488 C 282.000 144.933,282.300 145.200,282.800 145.200 C 283.333 145.200,283.600 145.467,283.600 146.000 C 283.600 146.440,283.780 146.800,284.000 146.800 C 284.220 146.800,284.400 147.160,284.400 147.600 C 284.400 148.040,284.580 148.400,284.800 148.400 C 285.020 148.400,285.200 148.940,285.200 149.600 C 285.200 150.260,285.380 150.800,285.600 150.800 C 285.825 150.800,286.000 151.925,286.000 153.376 C 286.000 155.989,286.511 157.130,286.949 155.496 C 287.334 154.061,287.236 150.870,286.800 150.600 C 286.580 150.464,286.400 149.913,286.400 149.376 C 286.400 148.839,286.264 148.400,286.098 148.400 C 285.931 148.400,285.545 147.815,285.240 147.100 C 284.935 146.385,284.152 145.298,283.501 144.685 C 282.850 144.071,281.931 142.839,281.459 141.946 C 280.937 140.959,279.969 139.968,278.994 139.420 C 278.110 138.923,276.654 137.816,275.758 136.959 C 273.194 134.506,270.000 132.976,270.000 134.200 M117.200 141.489 C 113.200 144.542,112.749 145.130,112.880 147.120 C 113.045 149.628,114.000 149.879,114.000 147.415 C 114.000 145.516,115.252 143.600,116.494 143.600 C 116.785 143.600,117.283 143.240,117.600 142.800 C 117.917 142.360,118.497 142.000,118.888 142.000 C 119.326 142.000,119.600 141.701,119.600 141.224 C 119.600 139.975,119.112 140.029,117.200 141.489 M326.800 150.576 C 326.800 152.929,326.975 154.861,327.200 155.000 C 327.457 155.159,327.600 153.671,327.600 150.824 C 327.600 148.141,327.443 146.400,327.200 146.400 C 326.959 146.400,326.800 148.059,326.800 150.576 M286.000 201.000 C 286.000 237.427,286.120 242.348,286.957 240.167 C 287.280 239.326,287.264 165.994,286.941 163.300 C 286.194 157.084,286.000 164.865,286.000 201.000 M327.384 168.900 C 326.904 170.156,327.405 218.535,327.900 218.700 C 328.296 218.832,328.400 213.642,328.400 193.633 C 328.400 170.038,328.259 166.610,327.384 168.900 M113.002 169.993 C 112.653 171.092,114.508 172.947,115.607 172.598 C 116.551 172.298,116.666 171.600,115.771 171.600 C 115.426 171.600,114.886 171.343,114.571 171.029 C 114.257 170.714,114.000 170.174,114.000 169.829 C 114.000 168.934,113.302 169.049,113.002 169.993 M155.026 171.958 C 154.625 172.607,156.003 172.800,161.038 172.800 C 166.444 172.800,166.986 172.958,169.053 175.135 L 170.320 176.469 170.460 184.815 C 170.560 190.797,170.742 193.302,171.100 193.660 C 171.500 194.060,171.600 192.423,171.600 185.475 C 171.600 179.257,171.458 176.542,171.100 175.920 C 170.291 174.514,168.077 172.400,167.413 172.400 C 167.076 172.400,166.800 172.220,166.800 172.000 C 166.800 171.494,155.338 171.453,155.026 171.958 M117.200 172.813 C 117.200 173.084,120.135 173.234,125.700 173.249 C 130.375 173.262,137.127 173.365,140.705 173.478 C 147.224 173.684,149.200 173.525,149.200 172.792 C 149.200 172.542,143.393 172.400,133.200 172.400 C 122.462 172.400,117.200 172.536,117.200 172.813 M149.600 172.800 C 149.600 173.020,150.590 173.200,151.800 173.200 C 153.010 173.200,154.000 173.020,154.000 172.800 C 154.000 172.580,153.010 172.400,151.800 172.400 C 150.590 172.400,149.600 172.580,149.600 172.800 M170.643 211.433 C 170.509 211.781,170.400 212.411,170.400 212.833 C 170.400 213.255,170.220 213.600,170.000 213.600 C 169.780 213.600,169.600 213.870,169.600 214.200 C 169.600 214.530,169.793 214.800,170.029 214.800 C 170.883 214.800,171.600 213.626,171.600 212.229 C 171.600 210.756,171.071 210.316,170.643 211.433 M131.800 214.782 C 116.012 215.021,116.624 214.924,114.089 217.598 C 113.031 218.715,112.787 219.273,112.882 220.367 C 113.047 222.283,114.000 222.498,114.000 220.620 C 114.000 218.722,116.181 216.400,117.963 216.400 C 118.617 216.400,119.264 216.220,119.400 216.000 C 119.561 215.740,128.337 215.600,144.424 215.600 C 166.180 215.600,169.200 215.527,169.200 215.000 C 169.200 214.345,162.995 214.309,131.800 214.782 M112.267 223.067 C 111.678 223.655,111.975 228.400,112.600 228.400 C 113.076 228.400,113.200 227.822,113.200 225.600 C 113.200 223.022,112.961 222.373,112.267 223.067 M112.161 232.158 C 111.796 233.109,112.173 235.729,112.700 235.902 C 113.060 236.021,113.200 235.441,113.200 233.833 C 113.200 231.740,112.657 230.864,112.161 232.158 M326.664 241.500 C 326.520 245.625,326.402 251.734,326.401 255.076 C 326.400 258.695,326.238 261.253,326.000 261.400 C 325.356 261.798,325.520 263.600,326.200 263.600 C 326.600 263.600,326.800 263.200,326.800 262.400 C 326.800 261.740,326.980 261.200,327.200 261.200 C 327.459 261.200,327.600 256.400,327.600 247.600 C 327.600 232.836,327.085 229.476,326.664 241.500 M113.067 237.467 C 112.526 238.007,112.788 240.000,113.400 240.000 C 113.819 240.000,114.000 239.578,114.000 238.600 C 114.000 237.276,113.664 236.869,113.067 237.467 M113.600 241.005 C 113.600 241.853,114.394 243.158,115.800 244.624 C 117.594 246.493,118.400 247.558,118.400 248.058 C 118.400 248.628,120.438 250.399,121.095 250.400 C 121.367 250.400,122.267 251.120,123.095 251.999 C 123.923 252.879,124.825 253.599,125.100 253.599 C 125.375 253.600,125.600 253.780,125.600 254.000 C 125.600 254.220,125.870 254.400,126.200 254.400 C 126.530 254.400,126.800 254.580,126.800 254.800 C 126.800 255.020,127.124 255.200,127.520 255.200 C 127.916 255.200,128.440 255.400,128.685 255.645 C 128.930 255.890,129.326 255.969,129.565 255.822 C 130.272 255.385,130.063 254.800,129.200 254.800 C 128.760 254.800,128.400 254.620,128.400 254.400 C 128.400 254.180,128.080 254.000,127.688 254.000 C 127.297 254.000,126.717 253.640,126.400 253.200 C 126.083 252.760,125.503 252.400,125.112 252.400 C 124.667 252.400,124.400 252.100,124.400 251.600 C 124.400 251.100,124.133 250.800,123.688 250.800 C 123.297 250.800,122.717 250.440,122.400 250.000 C 122.083 249.560,121.580 249.200,121.283 249.200 C 120.619 249.200,119.600 248.225,119.600 247.589 C 119.600 247.332,119.094 246.644,118.475 246.060 C 117.857 245.477,117.233 244.685,117.088 244.300 C 116.943 243.915,116.549 243.600,116.213 243.600 C 115.867 243.600,115.600 243.252,115.600 242.800 C 115.600 242.360,115.420 242.000,115.200 242.000 C 114.980 242.000,114.800 241.640,114.800 241.200 C 114.800 240.756,114.533 240.400,114.200 240.400 C 113.870 240.400,113.600 240.672,113.600 241.005 M285.273 242.212 C 285.343 242.769,285.580 243.225,285.800 243.225 C 286.020 243.225,286.257 242.769,286.327 242.212 C 286.417 241.491,286.265 241.200,285.800 241.200 C 285.335 241.200,285.183 241.491,285.273 242.212 M283.600 244.231 C 283.600 244.579,282.880 245.554,282.000 246.400 C 281.120 247.246,280.400 248.221,280.400 248.569 C 280.400 248.992,280.034 249.200,279.288 249.200 C 278.635 249.200,277.939 249.530,277.600 250.000 C 277.283 250.440,276.743 250.800,276.400 250.800 C 276.057 250.800,275.517 251.160,275.200 251.600 C 274.883 252.040,274.380 252.400,274.083 252.400 C 273.438 252.400,272.400 253.369,272.400 253.971 C 272.400 254.207,272.670 254.400,273.000 254.400 C 273.330 254.400,273.600 254.220,273.600 254.000 C 273.600 253.780,273.832 253.600,274.115 253.600 C 274.398 253.600,275.253 253.067,276.015 252.416 C 276.777 251.765,277.625 251.225,277.900 251.216 C 278.175 251.207,278.400 251.020,278.400 250.800 C 278.400 250.580,278.766 250.400,279.213 250.400 C 279.659 250.400,280.129 250.130,280.255 249.800 C 280.382 249.470,280.736 249.200,281.043 249.200 C 281.349 249.200,281.600 249.024,281.600 248.809 C 281.600 248.595,282.492 247.484,283.582 246.341 C 284.671 245.199,285.471 244.114,285.358 243.932 C 284.991 243.339,283.600 243.576,283.600 244.231 M270.800 254.400 C 270.800 254.620,270.260 254.800,269.600 254.800 C 268.940 254.800,268.400 254.980,268.400 255.200 C 268.400 255.420,268.040 255.600,267.600 255.600 C 267.160 255.600,266.800 255.780,266.800 256.000 C 266.800 256.220,266.513 256.400,266.163 256.400 C 265.812 256.400,265.431 256.760,265.316 257.200 C 265.200 257.643,264.770 258.000,264.353 258.000 C 263.939 258.000,263.600 258.180,263.600 258.400 C 263.600 258.620,263.240 258.800,262.800 258.800 C 262.360 258.800,262.000 258.980,262.000 259.200 C 262.000 259.420,261.500 259.600,260.888 259.600 C 260.235 259.600,259.539 259.930,259.200 260.400 C 258.883 260.840,258.303 261.200,257.912 261.200 C 257.520 261.200,257.200 261.380,257.200 261.600 C 257.200 261.820,256.912 262.000,256.560 262.000 C 256.209 262.000,255.417 262.540,254.800 263.200 C 254.183 263.860,253.391 264.400,253.040 264.400 C 252.688 264.400,252.400 264.580,252.400 264.800 C 252.400 265.020,251.900 265.200,251.288 265.200 C 250.635 265.200,249.939 265.530,249.600 266.000 C 249.283 266.440,248.743 266.800,248.400 266.800 C 248.057 266.800,247.517 267.160,247.200 267.600 C 246.883 268.040,246.303 268.400,245.912 268.400 C 245.520 268.400,245.200 268.580,245.200 268.800 C 245.200 269.020,244.840 269.200,244.400 269.200 C 243.960 269.200,243.600 269.380,243.600 269.600 C 243.600 269.820,243.240 270.000,242.800 270.000 C 242.360 270.000,242.000 270.180,242.000 270.400 C 242.000 270.620,241.640 270.800,241.200 270.800 C 240.760 270.800,240.400 270.959,240.400 271.153 C 240.400 271.348,240.040 271.601,239.600 271.716 C 239.160 271.831,238.800 272.212,238.800 272.563 C 238.800 272.933,238.465 273.200,238.000 273.200 C 237.560 273.200,237.200 273.380,237.200 273.600 C 237.200 273.820,236.840 274.000,236.400 274.000 C 235.960 274.000,235.600 274.180,235.600 274.400 C 235.600 274.620,235.240 274.800,234.800 274.800 C 234.360 274.800,234.000 274.980,234.000 275.200 C 234.000 275.420,233.680 275.600,233.288 275.600 C 232.897 275.600,232.317 275.960,232.000 276.400 C 231.683 276.840,231.103 277.200,230.712 277.200 C 230.320 277.200,230.000 277.380,230.000 277.600 C 230.000 277.820,229.640 278.000,229.200 278.000 C 228.667 278.000,228.400 278.267,228.400 278.800 C 228.400 279.749,228.908 279.834,229.600 279.000 C 229.874 278.670,230.346 278.400,230.649 278.400 C 230.952 278.400,231.201 278.265,231.203 278.100 C 231.207 277.741,233.144 276.800,233.880 276.800 C 234.166 276.800,234.400 276.620,234.400 276.400 C 234.400 276.180,234.760 276.000,235.200 276.000 C 235.640 276.000,236.000 275.820,236.000 275.600 C 236.000 275.380,236.244 275.200,236.542 275.200 C 236.839 275.200,237.569 274.750,238.162 274.200 C 238.756 273.650,239.334 273.200,239.447 273.200 C 239.561 273.200,240.243 272.750,240.964 272.200 C 241.686 271.650,242.664 271.200,243.138 271.200 C 243.612 271.200,244.000 271.048,244.000 270.863 C 244.000 270.677,244.855 270.092,245.900 269.563 C 246.945 269.033,247.860 268.465,247.933 268.300 C 248.007 268.135,248.294 268.000,248.571 268.000 C 248.849 268.000,249.402 267.640,249.800 267.200 C 250.198 266.760,250.845 266.400,251.238 266.400 C 251.631 266.400,252.064 266.220,252.200 266.000 C 252.336 265.780,252.752 265.600,253.124 265.599 C 253.496 265.599,254.418 265.070,255.174 264.424 C 255.929 263.778,257.324 262.850,258.274 262.362 C 259.223 261.874,260.000 261.323,260.000 261.137 C 260.000 260.952,260.349 260.800,260.776 260.800 C 261.203 260.800,261.664 260.620,261.800 260.400 C 261.936 260.180,262.319 260.000,262.652 260.000 C 263.167 260.000,266.601 257.906,267.200 257.226 C 267.423 256.973,268.740 256.337,270.700 255.536 C 272.029 254.993,272.481 254.000,271.400 254.000 C 271.070 254.000,270.800 254.180,270.800 254.400 M130.400 256.200 C 130.400 256.530,130.672 256.800,131.005 256.800 C 131.714 256.800,133.030 257.511,134.155 258.500 C 134.593 258.885,135.266 259.200,135.652 259.200 C 136.037 259.200,136.464 259.380,136.600 259.600 C 136.982 260.218,138.000 260.073,138.000 259.400 C 138.000 259.067,137.644 258.800,137.200 258.800 C 136.760 258.800,136.400 258.620,136.400 258.400 C 136.400 258.180,136.080 258.000,135.688 258.000 C 135.297 258.000,134.717 257.640,134.400 257.200 C 134.083 256.760,133.503 256.400,133.112 256.400 C 132.720 256.400,132.400 256.220,132.400 256.000 C 132.400 255.780,131.950 255.600,131.400 255.600 C 130.778 255.600,130.400 255.827,130.400 256.200 M138.498 260.100 C 138.589 260.375,139.054 260.658,139.531 260.728 C 140.009 260.798,140.400 261.023,140.400 261.228 C 140.400 261.433,140.760 261.600,141.200 261.600 C 141.640 261.600,142.000 261.736,142.000 261.902 C 142.000 262.069,142.506 262.429,143.125 262.703 C 143.744 262.976,144.659 263.581,145.158 264.047 C 145.787 264.633,146.195 264.765,146.482 264.478 C 146.983 263.977,145.176 262.000,144.218 262.000 C 143.878 262.000,143.600 261.820,143.600 261.600 C 143.600 261.380,143.240 261.200,142.800 261.200 C 142.360 261.200,142.000 261.020,142.000 260.800 C 142.000 260.580,141.640 260.400,141.200 260.400 C 140.760 260.400,140.400 260.220,140.400 260.000 C 140.400 259.780,139.935 259.600,139.367 259.600 C 138.719 259.600,138.395 259.787,138.498 260.100 M324.800 264.617 C 324.800 264.956,324.440 265.620,324.000 266.092 C 323.560 266.564,323.200 267.303,323.200 267.734 C 323.200 268.170,322.138 269.527,320.800 270.800 C 319.480 272.056,318.400 273.280,318.400 273.519 C 318.400 273.759,317.860 274.274,317.200 274.664 C 316.540 275.054,316.000 275.514,316.000 275.686 C 316.000 275.859,315.702 276.000,315.338 276.000 C 314.741 276.000,312.979 277.151,311.519 278.494 C 310.810 279.147,309.602 279.851,306.437 281.457 C 305.027 282.172,303.767 282.902,303.637 283.079 C 303.309 283.524,302.073 284.269,300.300 285.093 C 299.475 285.475,298.800 285.926,298.800 286.094 C 298.800 286.262,298.350 286.400,297.800 286.400 C 297.178 286.400,296.800 286.627,296.800 287.000 C 296.800 287.373,297.178 287.600,297.800 287.600 C 298.350 287.600,298.800 287.420,298.800 287.200 C 298.800 286.980,299.160 286.800,299.600 286.800 C 300.040 286.800,300.400 286.620,300.400 286.400 C 300.400 286.180,300.760 286.000,301.200 286.000 C 301.640 286.000,302.000 285.841,302.000 285.647 C 302.000 285.452,302.360 285.199,302.800 285.084 C 303.240 284.969,303.600 284.588,303.600 284.237 C 303.600 283.867,303.935 283.600,304.400 283.600 C 304.840 283.600,305.200 283.420,305.200 283.200 C 305.200 282.980,305.560 282.800,306.000 282.800 C 306.440 282.800,306.800 282.620,306.800 282.400 C 306.800 282.180,307.160 282.000,307.600 282.000 C 308.040 282.000,308.400 281.820,308.400 281.600 C 308.400 281.380,308.720 281.200,309.112 281.200 C 309.503 281.200,310.083 280.840,310.400 280.400 C 310.717 279.960,311.297 279.600,311.688 279.600 C 312.080 279.600,312.400 279.441,312.400 279.247 C 312.400 279.052,312.760 278.799,313.200 278.684 C 313.640 278.569,314.000 278.188,314.000 277.837 C 314.000 277.423,314.352 277.200,315.005 277.200 C 316.366 277.200,324.400 269.242,324.400 267.893 C 324.400 267.389,324.760 266.717,325.200 266.400 C 326.142 265.721,326.286 264.000,325.400 264.000 C 325.070 264.000,324.800 264.278,324.800 264.617 M147.200 265.000 C 147.200 265.330,147.470 265.600,147.800 265.600 C 148.130 265.600,148.400 265.330,148.400 265.000 C 148.400 264.670,148.130 264.400,147.800 264.400 C 147.470 264.400,147.200 264.670,147.200 265.000 M148.800 265.601 C 148.800 265.822,149.520 266.314,150.400 266.696 C 151.280 267.077,152.000 267.526,152.000 267.694 C 152.000 267.862,152.208 268.000,152.462 268.000 C 152.716 268.000,153.514 268.450,154.236 269.000 C 155.467 269.939,156.400 270.276,156.400 269.782 C 156.400 269.381,154.442 267.600,154.001 267.600 C 153.762 267.600,153.180 267.240,152.708 266.800 C 152.236 266.360,151.613 266.000,151.325 266.000 C 151.036 266.000,150.800 265.820,150.800 265.600 C 150.800 265.380,150.350 265.200,149.800 265.200 C 149.250 265.200,148.800 265.381,148.800 265.601 M75.600 270.600 C 75.600 271.292,75.819 271.600,76.312 271.600 C 76.703 271.600,77.283 271.960,77.600 272.400 C 78.147 273.159,79.600 273.529,79.600 272.909 C 79.600 272.513,76.387 269.600,75.949 269.600 C 75.757 269.600,75.600 270.050,75.600 270.600 M156.898 270.500 C 156.989 270.775,157.493 271.063,158.018 271.139 C 158.544 271.216,159.250 271.587,159.587 271.964 C 160.255 272.712,163.794 275.200,164.189 275.200 C 164.323 275.200,164.820 275.560,165.292 276.000 C 165.764 276.440,166.404 276.800,166.714 276.800 C 167.023 276.800,167.787 277.163,168.410 277.607 C 169.117 278.110,169.639 278.260,169.797 278.004 C 170.119 277.484,169.059 276.400,168.229 276.400 C 167.883 276.400,167.600 276.220,167.600 276.000 C 167.600 275.780,167.280 275.600,166.888 275.600 C 166.497 275.600,165.917 275.240,165.600 274.800 C 165.283 274.360,164.703 274.000,164.312 274.000 C 163.920 274.000,163.600 273.820,163.600 273.600 C 163.600 273.380,163.330 273.200,163.000 273.200 C 162.671 273.200,161.659 272.480,160.752 271.600 C 159.118 270.014,156.491 269.265,156.898 270.500 M79.825 273.159 C 79.498 273.688,82.143 276.400,82.987 276.400 C 83.324 276.400,83.600 276.580,83.600 276.800 C 83.600 277.020,84.100 277.200,84.712 277.200 C 85.365 277.200,86.061 277.530,86.400 278.000 C 86.717 278.440,87.257 278.800,87.600 278.800 C 87.943 278.800,88.483 279.160,88.800 279.600 C 89.117 280.040,89.657 280.400,90.000 280.400 C 90.343 280.400,90.883 280.760,91.200 281.200 C 91.539 281.670,92.235 282.000,92.888 282.000 C 93.500 282.000,94.000 282.180,94.000 282.400 C 94.000 282.620,94.288 282.800,94.640 282.800 C 94.991 282.800,95.783 283.340,96.400 284.000 C 97.017 284.660,97.769 285.200,98.072 285.200 C 98.375 285.200,98.883 285.560,99.200 286.000 C 99.517 286.440,100.097 286.800,100.488 286.800 C 100.880 286.800,101.200 286.980,101.200 287.200 C 101.200 287.420,101.650 287.600,102.200 287.600 C 102.822 287.600,103.200 287.373,103.200 287.000 C 103.200 286.670,102.966 286.400,102.680 286.400 C 101.944 286.400,100.007 285.459,100.003 285.100 C 100.001 284.935,99.757 284.800,99.459 284.800 C 99.162 284.800,98.392 284.305,97.749 283.700 C 96.585 282.606,93.469 280.800,92.745 280.800 C 92.537 280.800,91.980 280.440,91.508 280.000 C 91.036 279.560,90.413 279.200,90.125 279.200 C 89.836 279.200,89.600 279.020,89.600 278.800 C 89.600 278.580,89.306 278.400,88.947 278.400 C 88.588 278.400,88.001 278.085,87.643 277.700 C 86.733 276.723,85.357 276.000,84.405 276.000 C 83.962 276.000,83.600 275.820,83.600 275.600 C 83.600 275.380,83.384 275.200,83.119 275.200 C 82.855 275.200,82.065 274.644,81.364 273.965 C 80.578 273.204,79.989 272.895,79.825 273.159 M170.400 278.382 C 170.400 278.878,172.322 280.800,172.818 280.800 C 173.491 280.800,173.229 280.065,172.182 279.018 C 171.135 277.971,170.400 277.709,170.400 278.382 M226.800 280.200 C 226.800 280.530,227.070 280.800,227.400 280.800 C 227.730 280.800,228.000 280.530,228.000 280.200 C 228.000 279.870,227.730 279.600,227.400 279.600 C 227.070 279.600,226.800 279.870,226.800 280.200 M173.600 281.000 C 173.600 281.373,173.978 281.600,174.600 281.600 C 175.222 281.600,175.600 281.373,175.600 281.000 C 175.600 280.627,175.222 280.400,174.600 280.400 C 173.978 280.400,173.600 280.627,173.600 281.000 M224.400 281.000 C 224.400 281.373,224.778 281.600,225.400 281.600 C 226.022 281.600,226.400 281.373,226.400 281.000 C 226.400 280.627,226.022 280.400,225.400 280.400 C 224.778 280.400,224.400 280.627,224.400 281.000 M176.071 281.867 C 176.265 282.870,177.200 283.008,177.200 282.033 C 177.200 281.542,176.942 281.200,176.571 281.200 C 176.198 281.200,175.994 281.472,176.071 281.867 M222.400 282.000 C 222.083 282.440,221.543 282.800,221.200 282.800 C 220.857 282.800,220.317 283.160,220.000 283.600 C 219.683 284.040,219.146 284.400,218.808 284.400 C 218.469 284.400,217.968 284.760,217.693 285.200 C 217.404 285.662,216.760 286.000,216.168 286.000 C 214.993 286.000,213.819 286.983,214.220 287.632 C 214.415 287.947,214.612 287.948,214.925 287.635 C 215.164 287.396,215.765 287.200,216.260 287.200 C 216.755 287.200,217.304 286.975,217.480 286.700 C 217.807 286.190,218.923 285.405,220.000 284.930 C 221.514 284.262,224.000 282.304,224.000 281.781 C 224.000 280.941,223.072 281.068,222.400 282.000 M177.600 283.332 C 177.600 283.625,178.095 284.119,178.700 284.430 C 179.305 284.740,180.070 285.267,180.400 285.600 C 181.117 286.324,183.888 287.653,184.915 287.765 C 185.088 287.784,185.358 287.992,185.515 288.226 C 185.876 288.766,189.078 290.885,190.400 291.459 C 190.950 291.698,191.866 292.112,192.435 292.379 C 193.607 292.930,195.848 292.807,195.707 292.200 C 195.656 291.980,194.891 291.745,194.007 291.677 C 193.123 291.609,192.400 291.384,192.400 291.177 C 192.400 290.970,192.040 290.800,191.600 290.800 C 191.160 290.800,190.800 290.620,190.800 290.400 C 190.800 290.180,190.440 290.000,190.000 290.000 C 189.560 290.000,189.200 289.820,189.200 289.600 C 189.200 289.380,188.928 289.200,188.596 289.200 C 188.264 289.200,187.428 288.660,186.737 288.000 C 186.046 287.340,185.238 286.800,184.941 286.800 C 184.643 286.800,184.400 286.620,184.400 286.400 C 184.400 286.180,183.932 286.000,183.360 286.000 C 182.721 286.000,181.889 285.538,181.200 284.800 C 180.583 284.140,179.791 283.600,179.440 283.600 C 179.088 283.600,178.800 283.420,178.800 283.200 C 178.800 282.980,178.530 282.800,178.200 282.800 C 177.870 282.800,177.600 283.040,177.600 283.332 M103.803 287.596 C 103.513 288.065,104.509 289.200,105.211 289.200 C 105.468 289.200,106.183 289.740,106.800 290.400 C 107.417 291.060,108.209 291.600,108.560 291.600 C 108.912 291.600,109.200 291.780,109.200 292.000 C 109.200 292.220,109.470 292.400,109.800 292.400 C 110.130 292.400,110.400 292.130,110.400 291.800 C 110.400 291.470,110.157 291.200,109.859 291.200 C 109.562 291.200,108.754 290.660,108.063 290.000 C 107.372 289.340,106.698 288.800,106.565 288.800 C 106.432 288.800,105.813 288.437,105.190 287.993 C 104.483 287.490,103.961 287.340,103.803 287.596 M294.800 288.013 C 294.250 288.436,293.585 288.786,293.323 288.791 C 293.060 288.796,292.610 289.128,292.323 289.529 C 292.035 289.930,291.215 290.514,290.500 290.827 C 289.785 291.139,289.200 291.531,289.200 291.698 C 289.200 291.864,288.827 292.000,288.372 292.000 C 287.917 292.000,286.792 292.501,285.872 293.112 C 284.952 293.724,283.660 294.488,283.000 294.809 C 282.340 295.131,281.524 295.693,281.187 296.058 C 280.850 296.423,280.144 296.784,279.618 296.861 C 278.119 297.079,278.109 298.000,279.606 298.000 C 280.505 298.000,281.209 297.647,282.000 296.800 C 282.617 296.140,283.409 295.600,283.760 295.600 C 284.112 295.600,284.400 295.420,284.400 295.200 C 284.400 294.980,284.760 294.800,285.200 294.800 C 285.640 294.800,286.000 294.620,286.000 294.400 C 286.000 294.180,286.360 294.000,286.800 294.000 C 287.240 294.000,287.600 293.820,287.600 293.600 C 287.600 293.380,287.960 293.200,288.400 293.200 C 288.840 293.200,289.200 293.020,289.200 292.800 C 289.200 292.580,289.560 292.400,290.000 292.400 C 290.440 292.400,290.800 292.220,290.800 292.000 C 290.800 291.780,291.088 291.600,291.440 291.600 C 291.791 291.600,292.583 291.060,293.200 290.400 C 293.817 289.740,294.532 289.200,294.789 289.200 C 295.047 289.200,295.539 288.918,295.883 288.574 C 296.858 287.599,295.949 287.128,294.800 288.013 M212.000 288.400 C 211.683 288.840,211.103 289.200,210.712 289.200 C 210.320 289.200,210.000 289.380,210.000 289.600 C 210.000 289.820,209.640 290.000,209.200 290.000 C 208.760 290.000,208.400 290.180,208.400 290.400 C 208.400 290.620,208.040 290.800,207.600 290.800 C 207.160 290.800,206.800 290.980,206.800 291.200 C 206.800 291.420,205.900 291.600,204.800 291.600 C 203.700 291.600,202.800 291.780,202.800 292.000 C 202.800 292.234,201.456 292.400,199.567 292.400 C 197.159 292.400,196.375 292.528,196.499 292.900 C 196.709 293.536,201.947 293.813,202.540 293.220 C 202.771 292.989,203.719 292.800,204.646 292.800 C 207.033 292.800,213.600 289.390,213.600 288.151 C 213.600 287.336,212.661 287.482,212.000 288.400 M111.067 292.267 C 110.560 292.774,110.803 293.200,111.600 293.200 C 112.040 293.200,112.400 293.380,112.400 293.600 C 112.400 293.820,112.670 294.000,113.000 294.000 C 113.813 294.000,113.758 293.208,112.900 292.557 C 112.122 291.966,111.470 291.863,111.067 292.267 M114.175 294.041 C 113.876 294.525,114.976 295.600,115.771 295.600 C 116.117 295.600,116.400 295.780,116.400 296.000 C 116.400 296.220,116.717 296.400,117.104 296.400 C 117.491 296.400,118.032 296.760,118.307 297.200 C 118.597 297.664,119.240 298.000,119.837 298.000 C 121.260 298.000,120.865 297.120,119.254 296.702 C 118.544 296.518,117.862 296.105,117.738 295.784 C 117.615 295.463,117.264 295.200,116.957 295.200 C 116.651 295.200,116.399 295.065,116.397 294.900 C 116.392 294.402,114.422 293.641,114.175 294.041 M121.402 297.997 C 121.089 298.504,122.966 300.400,123.782 300.400 C 124.122 300.400,124.400 300.580,124.400 300.800 C 124.400 301.020,124.670 301.200,125.000 301.200 C 125.330 301.200,125.600 300.930,125.600 300.600 C 125.600 300.270,125.375 299.999,125.100 299.998 C 124.825 299.997,124.025 299.457,123.322 298.798 C 121.916 297.480,121.761 297.416,121.402 297.997 M276.495 298.398 C 276.021 298.839,275.446 299.200,275.217 299.200 C 274.988 299.200,274.800 299.380,274.800 299.600 C 274.800 299.820,274.530 300.000,274.200 300.000 C 273.870 300.000,273.600 300.270,273.600 300.600 C 273.600 300.930,273.870 301.200,274.200 301.200 C 274.530 301.200,274.800 301.020,274.800 300.800 C 274.800 300.580,275.078 300.400,275.418 300.400 C 276.307 300.400,278.183 298.423,277.727 297.967 C 277.498 297.738,277.024 297.904,276.495 298.398 M126.203 301.196 C 125.881 301.716,126.941 302.800,127.771 302.800 C 128.117 302.800,128.400 302.980,128.400 303.200 C 128.400 303.420,128.760 303.600,129.200 303.600 C 129.640 303.600,130.000 303.780,130.000 304.000 C 130.000 304.220,130.360 304.400,130.800 304.400 C 131.240 304.400,131.600 304.580,131.600 304.800 C 131.600 305.020,131.975 305.200,132.433 305.200 C 134.102 305.200,133.004 304.183,129.800 302.761 C 129.140 302.468,128.118 301.904,127.528 301.507 C 126.850 301.051,126.363 300.936,126.203 301.196 M271.430 301.624 C 271.007 302.051,270.342 302.400,269.954 302.400 C 269.565 302.400,269.136 302.580,269.000 302.800 C 268.864 303.020,268.486 303.200,268.159 303.200 C 267.832 303.200,267.078 303.663,266.483 304.229 C 265.887 304.794,264.725 305.557,263.900 305.923 C 263.075 306.289,262.400 306.726,262.400 306.894 C 262.400 307.062,261.950 307.200,261.400 307.200 C 260.850 307.200,260.400 307.346,260.400 307.525 C 260.400 307.704,259.770 308.098,259.000 308.400 C 258.230 308.702,257.600 309.096,257.600 309.275 C 257.600 309.454,257.375 309.600,257.100 309.601 C 256.825 309.601,255.970 310.141,255.200 310.800 C 254.430 311.459,253.575 311.999,253.300 311.999 C 253.025 312.000,252.800 312.180,252.800 312.400 C 252.800 312.620,252.300 312.800,251.688 312.800 C 251.035 312.800,250.339 313.130,250.000 313.600 C 249.683 314.040,249.122 314.400,248.754 314.400 C 248.387 314.400,247.972 314.696,247.833 315.057 C 247.695 315.419,247.483 315.616,247.362 315.496 C 246.891 315.024,243.200 317.561,243.200 318.358 C 243.200 319.080,244.179 318.861,244.800 318.000 C 245.117 317.560,245.657 317.200,246.000 317.200 C 246.343 317.200,246.883 316.840,247.200 316.400 C 247.517 315.960,248.097 315.600,248.488 315.600 C 248.880 315.600,249.200 315.420,249.200 315.200 C 249.200 314.980,249.560 314.800,250.000 314.800 C 250.440 314.800,250.800 314.620,250.800 314.400 C 250.800 314.180,251.216 314.000,251.725 314.000 C 252.233 314.000,253.036 313.640,253.508 313.200 C 253.980 312.760,254.604 312.400,254.895 312.400 C 255.186 312.400,255.683 312.040,256.000 311.600 C 256.317 311.160,256.857 310.800,257.200 310.800 C 257.543 310.800,258.083 310.440,258.400 310.000 C 258.717 309.560,259.297 309.200,259.688 309.200 C 260.080 309.200,260.400 309.020,260.400 308.800 C 260.400 308.580,260.863 308.400,261.429 308.400 C 262.462 308.400,263.600 307.596,263.600 306.866 C 263.600 306.651,263.960 306.569,264.400 306.684 C 264.847 306.801,265.200 306.696,265.200 306.447 C 265.200 306.201,265.520 306.000,265.912 306.000 C 266.303 306.000,266.883 305.640,267.200 305.200 C 267.517 304.760,268.097 304.400,268.488 304.400 C 268.880 304.400,269.200 304.220,269.200 304.000 C 269.200 303.780,269.605 303.600,270.100 303.600 C 271.075 303.599,273.200 301.990,273.200 301.253 C 273.200 300.564,272.293 300.754,271.430 301.624 M133.421 305.167 C 133.093 305.697,134.940 307.600,135.782 307.600 C 136.122 307.600,136.400 307.780,136.400 308.000 C 136.400 308.220,136.900 308.400,137.512 308.400 C 138.165 308.400,138.861 308.730,139.200 309.200 C 139.517 309.640,140.097 310.000,140.488 310.000 C 140.880 310.000,141.200 310.180,141.200 310.400 C 141.200 310.620,141.488 310.800,141.840 310.800 C 142.191 310.800,142.983 311.340,143.600 312.000 C 144.217 312.660,145.009 313.200,145.360 313.200 C 145.712 313.200,146.000 313.380,146.000 313.600 C 146.000 313.820,146.500 314.000,147.112 314.000 C 147.765 314.000,148.461 314.330,148.800 314.800 C 149.117 315.240,149.697 315.600,150.088 315.600 C 150.480 315.600,150.800 315.780,150.800 316.000 C 150.800 316.220,151.160 316.400,151.600 316.400 C 152.705 316.400,152.604 315.658,151.439 315.215 C 150.910 315.014,150.367 314.670,150.231 314.450 C 149.894 313.905,147.624 312.800,146.839 312.799 C 146.487 312.799,145.570 312.259,144.800 311.599 C 144.030 310.940,142.823 310.125,142.119 309.790 C 141.414 309.455,140.597 308.960,140.303 308.690 C 139.381 307.844,138.042 307.200,137.205 307.200 C 136.762 307.200,136.400 307.020,136.400 306.800 C 136.400 306.580,136.187 306.400,135.926 306.400 C 135.665 306.400,135.054 306.026,134.568 305.570 C 134.003 305.039,133.589 304.894,133.421 305.167 M152.598 316.403 C 152.297 316.890,153.329 318.000,154.083 318.000 C 154.380 318.000,154.883 318.360,155.200 318.800 C 155.892 319.761,158.000 319.911,158.000 319.000 C 158.000 318.663,157.643 318.400,157.183 318.400 C 156.734 318.400,155.980 318.040,155.508 317.600 C 155.036 317.160,154.413 316.800,154.125 316.800 C 153.836 316.800,153.600 316.620,153.600 316.400 C 153.600 315.881,152.919 315.883,152.598 316.403 M240.222 318.924 C 239.794 319.186,239.085 319.715,238.646 320.100 C 238.208 320.485,237.613 320.800,237.325 320.800 C 237.036 320.800,236.800 320.980,236.800 321.200 C 236.800 321.420,236.575 321.604,236.300 321.609 C 236.025 321.614,235.350 321.970,234.800 322.400 C 234.250 322.830,233.485 323.186,233.100 323.191 C 232.715 323.196,232.400 323.380,232.400 323.600 C 232.400 323.820,232.078 324.000,231.685 324.000 C 231.292 324.000,230.347 324.533,229.585 325.184 C 228.823 325.835,227.975 326.375,227.700 326.384 C 227.425 326.393,227.200 326.580,227.200 326.800 C 227.200 327.020,226.840 327.200,226.400 327.200 C 225.945 327.200,225.600 327.467,225.600 327.818 C 225.600 328.157,225.375 328.398,225.100 328.353 C 224.347 328.230,222.400 329.122,222.400 329.590 C 222.400 329.816,222.850 330.000,223.400 330.000 C 223.950 330.000,224.400 329.820,224.400 329.600 C 224.400 329.380,224.636 329.200,224.925 329.200 C 225.213 329.200,225.836 328.840,226.308 328.400 C 226.780 327.960,227.444 327.600,227.783 327.600 C 228.122 327.600,228.400 327.420,228.400 327.200 C 228.400 326.980,228.720 326.800,229.112 326.800 C 229.503 326.800,230.083 326.440,230.400 326.000 C 230.717 325.560,231.297 325.200,231.688 325.200 C 232.080 325.200,232.400 325.020,232.400 324.800 C 232.400 324.580,232.816 324.400,233.325 324.400 C 233.833 324.400,234.636 324.040,235.108 323.600 C 235.580 323.160,236.244 322.800,236.583 322.800 C 236.922 322.800,237.200 322.620,237.200 322.400 C 237.200 322.180,237.443 322.000,237.741 322.000 C 238.038 322.000,238.846 321.460,239.537 320.800 C 240.249 320.119,241.227 319.600,241.796 319.600 C 242.422 319.600,242.800 319.374,242.800 319.000 C 242.800 318.281,241.342 318.237,240.222 318.924 M159.014 319.577 C 158.691 320.099,160.549 322.000,161.382 322.000 C 161.722 322.000,162.000 322.147,162.000 322.326 C 162.000 322.735,165.081 324.400,165.838 324.400 C 166.147 324.400,166.400 324.109,166.400 323.753 C 166.400 323.304,166.156 323.170,165.600 323.316 C 165.136 323.437,164.800 323.328,164.800 323.057 C 164.800 322.799,164.104 322.287,163.253 321.918 C 162.401 321.550,161.456 321.012,161.151 320.724 C 159.814 319.460,159.268 319.167,159.014 319.577 M166.800 324.600 C 166.800 324.930,167.088 325.200,167.440 325.200 C 167.791 325.200,168.583 325.740,169.200 326.400 C 169.817 327.060,170.609 327.600,170.960 327.600 C 171.312 327.600,171.600 327.780,171.600 328.000 C 171.600 328.220,171.960 328.400,172.400 328.400 C 172.840 328.400,173.200 328.580,173.200 328.800 C 173.200 329.020,173.560 329.200,174.000 329.200 C 174.440 329.200,174.800 329.380,174.800 329.600 C 174.800 329.820,175.160 330.000,175.600 330.000 C 176.040 330.000,176.400 330.180,176.400 330.400 C 176.400 330.620,176.760 330.800,177.200 330.800 C 177.640 330.800,178.000 330.980,178.000 331.200 C 178.000 331.420,178.320 331.600,178.712 331.600 C 179.103 331.600,179.683 331.960,180.000 332.400 C 180.661 333.318,181.600 333.464,181.600 332.649 C 181.600 331.709,176.732 328.800,175.159 328.800 C 174.742 328.800,174.400 328.664,174.400 328.498 C 174.400 328.331,173.838 327.947,173.151 327.642 C 172.464 327.338,171.339 326.619,170.651 326.045 C 168.282 324.066,166.800 323.510,166.800 324.600 M220.800 330.200 C 220.800 330.530,221.070 330.800,221.400 330.800 C 221.730 330.800,222.000 330.530,222.000 330.200 C 222.000 329.870,221.730 329.600,221.400 329.600 C 221.070 329.600,220.800 329.870,220.800 330.200 M218.391 331.610 C 217.626 332.263,216.775 332.799,216.500 332.799 C 216.225 332.800,216.000 333.070,216.000 333.400 C 216.000 333.730,216.270 334.000,216.600 334.000 C 216.930 334.000,217.200 333.820,217.200 333.600 C 217.200 333.380,217.478 333.200,217.818 333.200 C 218.687 333.200,220.583 331.223,220.140 330.780 C 219.928 330.568,219.210 330.909,218.391 331.610 M182.000 333.400 C 182.000 333.730,182.270 334.000,182.600 334.000 C 182.930 334.000,183.200 333.730,183.200 333.400 C 183.200 333.070,182.930 332.800,182.600 332.800 C 182.270 332.800,182.000 333.070,182.000 333.400 M183.867 333.867 C 183.323 334.411,183.629 334.800,184.600 334.800 C 185.222 334.800,185.600 334.573,185.600 334.200 C 185.600 333.600,184.370 333.363,183.867 333.867 M213.533 333.900 C 213.366 334.276,211.236 335.575,210.300 335.871 C 209.446 336.142,209.366 337.200,210.200 337.200 C 210.530 337.200,210.800 337.020,210.800 336.800 C 210.800 336.580,211.160 336.400,211.600 336.400 C 212.040 336.400,212.400 336.220,212.400 336.000 C 212.400 335.780,212.760 335.600,213.200 335.600 C 213.640 335.600,214.000 335.420,214.000 335.200 C 214.000 334.980,214.360 334.800,214.800 334.800 C 215.244 334.800,215.600 334.533,215.600 334.200 C 215.600 333.586,213.790 333.323,213.533 333.900 M186.000 334.829 C 186.000 335.466,187.053 336.400,187.771 336.400 C 188.117 336.400,188.400 336.580,188.400 336.800 C 188.400 337.020,188.670 337.200,189.000 337.200 C 189.330 337.200,189.600 336.930,189.600 336.600 C 189.600 336.270,189.364 336.000,189.075 336.000 C 188.787 336.000,188.164 335.640,187.692 335.200 C 186.751 334.323,186.000 334.159,186.000 334.829 M190.000 337.400 C 190.000 337.730,190.270 338.000,190.600 338.000 C 190.930 338.000,191.200 337.730,191.200 337.400 C 191.200 337.070,190.930 336.800,190.600 336.800 C 190.270 336.800,190.000 337.070,190.000 337.400 M207.600 337.505 C 206.735 338.506,205.359 339.200,204.238 339.200 C 203.009 339.200,202.000 339.580,202.000 340.043 C 202.000 340.239,202.900 340.400,204.000 340.400 C 205.100 340.400,206.000 340.220,206.000 340.000 C 206.000 339.780,206.278 339.600,206.618 339.600 C 207.314 339.600,209.200 337.860,209.200 337.218 C 209.200 336.568,208.265 336.736,207.600 337.505 M191.600 338.637 C 191.600 338.988,191.960 339.369,192.400 339.484 C 192.840 339.599,193.200 339.852,193.200 340.047 C 193.200 340.241,194.190 340.400,195.400 340.400 C 198.555 340.400,197.984 339.251,194.800 339.193 C 194.250 339.183,193.451 338.910,193.024 338.587 C 192.021 337.829,191.600 337.844,191.600 338.637 " stroke="none" fill="#a3180c" fill-rule="evenodd"></path></g></svg>