<?xml version="1.0" standalone="no"?>
<!DOCTYPE svg PUBLIC "-//W3C//DTD SVG 20010904//EN"
 "http://www.w3.org/TR/2001/REC-SVG-20010904/DTD/svg10.dtd">
<svg version="1.0" xmlns="http://www.w3.org/2000/svg"
 width="576.000000pt" height="576.000000pt" viewBox="0 0 576.000000 576.000000"
 preserveAspectRatio="xMidYMid meet">
<metadata>
Created by potrace 1.14, written by Peter Selinger 2001-2017
</metadata>
<g transform="translate(0.000000,576.000000) scale(0.100000,-0.100000)"
fill="#000000" stroke="none">
<path d="M0 2880 l0 -2880 2880 0 2880 0 0 2880 0 2880 -2880 0 -2880 0 0
-2880z m3280 1980 c70 -36 473 -270 540 -315 36 -23 157 -93 270 -155 299
-165 469 -269 516 -315 22 -23 54 -68 70 -101 l29 -59 0 -960 0 -960 -23 -47
c-34 -69 -93 -130 -185 -191 -75 -50 -758 -441 -1332 -763 -302 -169 -277
-168 -530 -30 -628 344 -1473 845 -1527 904 -66 73 -63 19 -63 1092 l0 975 28
57 c32 66 70 102 164 156 715 410 1256 712 1276 712 29 0 57 -23 57 -48 1 -9
1 -138 0 -287 l0 -270 -28 -26 c-15 -14 -155 -99 -312 -189 -371 -211 -554
-324 -585 -362 -25 -29 -25 -32 -25 -199 0 -158 1 -170 21 -190 20 -20 28 -20
387 -18 263 2 373 -1 389 -9 37 -20 43 -66 46 -320 2 -207 0 -243 -14 -257
-13 -13 -68 -16 -394 -22 -373 -6 -380 -7 -401 -28 -52 -52 -58 -246 -11 -348
45 -98 111 -153 304 -250 165 -83 340 -186 616 -361 183 -116 236 -140 312
-140 79 0 113 16 431 206 142 85 333 197 424 248 91 51 197 111 235 133 85 49
141 105 154 155 6 22 11 290 13 667 l3 630 -28 57 c-38 78 -120 150 -258 227
-339 191 -558 317 -594 343 -76 54 -77 54 -78 365 l-1 276 23 18 c29 24 33 24
81 -1z"/>
</g>
</svg>
